<mxfile host="drawio-plugin" modified="2023-05-12T19:57:03.854Z" agent="5.0 (Windows NT 6.2; Win64; x64) AppleWebKit/537.36 (KHTML, like Gecko) Chrome/97.0.4692.45 Safari/537.36" etag="e3TdjxwOK4rcUZAVYfk6" version="20.5.3" type="embed"><diagram name="Page-1" id="IYpW-H2gMxvuuq4D2NdA"><mxGraphModel dx="1214" dy="816" grid="1" gridSize="10" guides="1" tooltips="1" connect="1" arrows="1" fold="1" page="1" pageScale="1" pageWidth="1100" pageHeight="1550" math="0" shadow="0"><root><mxCell id="0"/><mxCell id="1" parent="0"/><mxCell id="RaRLkv8VTMjk-wRqg82v-14" value="contains" style="edgeStyle=orthogonalEdgeStyle;rounded=0;orthogonalLoop=1;jettySize=auto;html=1;exitX=0.5;exitY=1;exitDx=0;exitDy=0;startArrow=diamondThin;startFill=1;endArrow=none;endFill=0;" parent="1" source="RaRLkv8VTMjk-wRqg82v-1" target="RaRLkv8VTMjk-wRqg82v-6" edge="1"><mxGeometry relative="1" as="geometry"/></mxCell><mxCell id="RaRLkv8VTMjk-wRqg82v-1" value="SystemFacade" style="swimlane;fontStyle=0;childLayout=stackLayout;horizontal=1;startSize=26;fillColor=none;horizontalStack=0;resizeParent=1;resizeParentMax=0;resizeLast=0;collapsible=1;marginBottom=0;whiteSpace=wrap;html=1;" parent="1" vertex="1"><mxGeometry x="348" y="30" width="140" height="52" as="geometry"/></mxCell><mxCell id="RaRLkv8VTMjk-wRqg82v-16" value="contains" style="edgeStyle=orthogonalEdgeStyle;rounded=0;orthogonalLoop=1;jettySize=auto;html=1;exitX=0.5;exitY=0;exitDx=0;exitDy=0;entryX=0.25;entryY=1;entryDx=0;entryDy=0;endArrow=diamondThin;endFill=0;" parent="1" source="RaRLkv8VTMjk-wRqg82v-5" target="RaRLkv8VTMjk-wRqg82v-6" edge="1"><mxGeometry relative="1" as="geometry"><Array as="points"><mxPoint x="194" y="190"/><mxPoint x="383" y="190"/></Array></mxGeometry></mxCell><mxCell id="RaRLkv8VTMjk-wRqg82v-5" value="EmployeeService" style="swimlane;fontStyle=0;childLayout=stackLayout;horizontal=1;startSize=26;fillColor=none;horizontalStack=0;resizeParent=1;resizeParentMax=0;resizeLast=0;collapsible=1;marginBottom=0;whiteSpace=wrap;html=1;" parent="1" vertex="1"><mxGeometry x="107" y="200" width="140" height="52" as="geometry"/></mxCell><mxCell id="RaRLkv8VTMjk-wRqg82v-6" value="HRService" style="swimlane;fontStyle=0;childLayout=stackLayout;horizontal=1;startSize=26;fillColor=none;horizontalStack=0;resizeParent=1;resizeParentMax=0;resizeLast=0;collapsible=1;marginBottom=0;whiteSpace=wrap;html=1;" parent="1" vertex="1"><mxGeometry x="348" y="120" width="140" height="52" as="geometry"/></mxCell><mxCell id="RaRLkv8VTMjk-wRqg82v-18" value="contains" style="edgeStyle=orthogonalEdgeStyle;rounded=0;orthogonalLoop=1;jettySize=auto;html=1;exitX=0.5;exitY=0;exitDx=0;exitDy=0;entryX=0.75;entryY=1;entryDx=0;entryDy=0;endArrow=diamondThin;endFill=0;" parent="1" source="RaRLkv8VTMjk-wRqg82v-7" target="RaRLkv8VTMjk-wRqg82v-6" edge="1"><mxGeometry relative="1" as="geometry"><Array as="points"><mxPoint x="634" y="190"/><mxPoint x="453" y="190"/></Array></mxGeometry></mxCell><mxCell id="RaRLkv8VTMjk-wRqg82v-7" value="BranchService" style="swimlane;fontStyle=0;childLayout=stackLayout;horizontal=1;startSize=26;fillColor=none;horizontalStack=0;resizeParent=1;resizeParentMax=0;resizeLast=0;collapsible=1;marginBottom=0;whiteSpace=wrap;html=1;" parent="1" vertex="1"><mxGeometry x="564" y="210" width="140" height="52" as="geometry"/></mxCell><mxCell id="RaRLkv8VTMjk-wRqg82v-19" value="contains" style="edgeStyle=orthogonalEdgeStyle;rounded=0;orthogonalLoop=1;jettySize=auto;html=1;exitX=0.5;exitY=0;exitDx=0;exitDy=0;entryX=0.5;entryY=1;entryDx=0;entryDy=0;endArrow=diamondThin;endFill=0;" parent="1" source="RaRLkv8VTMjk-wRqg82v-8" target="RaRLkv8VTMjk-wRqg82v-5" edge="1"><mxGeometry x="0.1" y="-3" relative="1" as="geometry"><mxPoint as="offset"/></mxGeometry></mxCell><mxCell id="RaRLkv8VTMjk-wRqg82v-8" value="EmployeeController" style="swimlane;fontStyle=0;childLayout=stackLayout;horizontal=1;startSize=26;fillColor=none;horizontalStack=0;resizeParent=1;resizeParentMax=0;resizeLast=0;collapsible=1;marginBottom=0;whiteSpace=wrap;html=1;" parent="1" vertex="1"><mxGeometry x="70" y="282" width="194" height="78" as="geometry"/></mxCell><mxCell id="RaRLkv8VTMjk-wRqg82v-259" value="&lt;font style=&quot;font-size: 12px;&quot;&gt;-&amp;nbsp;MIN_PASS_LENGTH: int = 6&lt;/font&gt;" style="text;strokeColor=none;fillColor=none;align=left;verticalAlign=top;spacingLeft=4;spacingRight=4;overflow=hidden;rotatable=0;points=[[0,0.5],[1,0.5]];portConstraint=eastwest;whiteSpace=wrap;html=1;fontSize=12;" parent="RaRLkv8VTMjk-wRqg82v-8" vertex="1"><mxGeometry y="26" width="194" height="26" as="geometry"/></mxCell><mxCell id="RaRLkv8VTMjk-wRqg82v-260" value="&lt;font style=&quot;font-size: 12px;&quot;&gt;-&amp;nbsp;MAX_PASS_LENGTH: int = 20&lt;/font&gt;" style="text;strokeColor=none;fillColor=none;align=left;verticalAlign=top;spacingLeft=4;spacingRight=4;overflow=hidden;rotatable=0;points=[[0,0.5],[1,0.5]];portConstraint=eastwest;whiteSpace=wrap;html=1;fontSize=12;" parent="RaRLkv8VTMjk-wRqg82v-8" vertex="1"><mxGeometry y="52" width="194" height="26" as="geometry"/></mxCell><mxCell id="RaRLkv8VTMjk-wRqg82v-21" value="contains" style="edgeStyle=orthogonalEdgeStyle;rounded=0;orthogonalLoop=1;jettySize=auto;html=1;exitX=0.5;exitY=0;exitDx=0;exitDy=0;entryX=0.5;entryY=1;entryDx=0;entryDy=0;endArrow=diamondThin;endFill=0;" parent="1" source="RaRLkv8VTMjk-wRqg82v-10" target="RaRLkv8VTMjk-wRqg82v-7" edge="1"><mxGeometry relative="1" as="geometry"/></mxCell><mxCell id="RaRLkv8VTMjk-wRqg82v-10" value="BranchController" style="swimlane;fontStyle=0;childLayout=stackLayout;horizontal=1;startSize=26;fillColor=none;horizontalStack=0;resizeParent=1;resizeParentMax=0;resizeLast=0;collapsible=1;marginBottom=0;whiteSpace=wrap;html=1;" parent="1" vertex="1"><mxGeometry x="564" y="298" width="140" height="52" as="geometry"/></mxCell><mxCell id="RaRLkv8VTMjk-wRqg82v-20" value="contains" style="edgeStyle=orthogonalEdgeStyle;rounded=0;orthogonalLoop=1;jettySize=auto;html=1;entryX=0.5;entryY=1;entryDx=0;entryDy=0;endArrow=diamondThin;endFill=0;" parent="1" source="RaRLkv8VTMjk-wRqg82v-11" target="RaRLkv8VTMjk-wRqg82v-15" edge="1"><mxGeometry relative="1" as="geometry"/></mxCell><mxCell id="RaRLkv8VTMjk-wRqg82v-23" value="contains" style="edgeStyle=orthogonalEdgeStyle;rounded=0;orthogonalLoop=1;jettySize=auto;html=1;exitX=1;exitY=0.5;exitDx=0;exitDy=0;entryX=0;entryY=0.5;entryDx=0;entryDy=0;endArrow=diamondThin;endFill=1;" parent="1" source="RaRLkv8VTMjk-wRqg82v-11" target="RaRLkv8VTMjk-wRqg82v-10" edge="1"><mxGeometry relative="1" as="geometry"/></mxCell><mxCell id="RaRLkv8VTMjk-wRqg82v-24" value="contains" style="edgeStyle=orthogonalEdgeStyle;rounded=0;orthogonalLoop=1;jettySize=auto;html=1;exitX=0;exitY=0.5;exitDx=0;exitDy=0;entryX=1;entryY=0.5;entryDx=0;entryDy=0;endArrow=diamondThin;endFill=1;" parent="1" source="RaRLkv8VTMjk-wRqg82v-11" target="RaRLkv8VTMjk-wRqg82v-8" edge="1"><mxGeometry relative="1" as="geometry"/></mxCell><mxCell id="RaRLkv8VTMjk-wRqg82v-11" value="ShiftController" style="swimlane;fontStyle=0;childLayout=stackLayout;horizontal=1;startSize=26;fillColor=none;horizontalStack=0;resizeParent=1;resizeParentMax=0;resizeLast=0;collapsible=1;marginBottom=0;whiteSpace=wrap;html=1;" parent="1" vertex="1"><mxGeometry x="348" y="297" width="140" height="52" as="geometry"/></mxCell><mxCell id="RaRLkv8VTMjk-wRqg82v-25" value="id: 30" style="text;strokeColor=none;fillColor=none;align=left;verticalAlign=top;spacingLeft=4;spacingRight=4;overflow=hidden;rotatable=0;points=[[0,0.5],[1,0.5]];portConstraint=eastwest;whiteSpace=wrap;html=1;" parent="RaRLkv8VTMjk-wRqg82v-11" vertex="1"><mxGeometry y="26" width="140" height="26" as="geometry"/></mxCell><mxCell id="RaRLkv8VTMjk-wRqg82v-13" value="הערה: להקלה על מראה התרשים מופעים של עובדים, ענפים ומשמרות מקושרים לקונטרולרים שלהם" style="text;html=1;strokeColor=none;fillColor=none;align=right;verticalAlign=middle;whiteSpace=wrap;rounded=0;" parent="1" vertex="1"><mxGeometry x="540" y="82" width="254" height="30" as="geometry"/></mxCell><mxCell id="RaRLkv8VTMjk-wRqg82v-17" value="contains" style="edgeStyle=orthogonalEdgeStyle;rounded=0;orthogonalLoop=1;jettySize=auto;html=1;exitX=0.5;exitY=0;exitDx=0;exitDy=0;entryX=0.5;entryY=1;entryDx=0;entryDy=0;endArrow=diamondThin;endFill=0;" parent="1" source="RaRLkv8VTMjk-wRqg82v-15" target="RaRLkv8VTMjk-wRqg82v-6" edge="1"><mxGeometry relative="1" as="geometry"/></mxCell><mxCell id="RaRLkv8VTMjk-wRqg82v-15" value="ShiftService" style="swimlane;fontStyle=0;childLayout=stackLayout;horizontal=1;startSize=26;fillColor=none;horizontalStack=0;resizeParent=1;resizeParentMax=0;resizeLast=0;collapsible=1;marginBottom=0;whiteSpace=wrap;html=1;" parent="1" vertex="1"><mxGeometry x="348" y="210" width="140" height="52" as="geometry"/></mxCell><mxCell id="RaRLkv8VTMjk-wRqg82v-28" style="edgeStyle=orthogonalEdgeStyle;rounded=0;orthogonalLoop=1;jettySize=auto;html=1;exitX=1;exitY=0.5;exitDx=0;exitDy=0;entryX=0.5;entryY=1;entryDx=0;entryDy=0;endArrow=diamondThin;endFill=0;" parent="1" source="RaRLkv8VTMjk-wRqg82v-27" target="RaRLkv8VTMjk-wRqg82v-8" edge="1"><mxGeometry relative="1" as="geometry"><Array as="points"><mxPoint x="167" y="377"/></Array></mxGeometry></mxCell><mxCell id="RaRLkv8VTMjk-wRqg82v-29" style="edgeStyle=orthogonalEdgeStyle;rounded=0;orthogonalLoop=1;jettySize=auto;html=1;exitX=1;exitY=0.5;exitDx=0;exitDy=0;entryX=0.579;entryY=1.013;entryDx=0;entryDy=0;entryPerimeter=0;endArrow=diamondThin;endFill=0;" parent="1" source="RaRLkv8VTMjk-wRqg82v-27" target="RaRLkv8VTMjk-wRqg82v-25" edge="1"><mxGeometry relative="1" as="geometry"/></mxCell><mxCell id="RaRLkv8VTMjk-wRqg82v-30" style="edgeStyle=orthogonalEdgeStyle;rounded=0;orthogonalLoop=1;jettySize=auto;html=1;exitX=1;exitY=0.5;exitDx=0;exitDy=0;endArrow=diamondThin;endFill=0;" parent="1" source="RaRLkv8VTMjk-wRqg82v-27" edge="1"><mxGeometry relative="1" as="geometry"><mxPoint x="640" y="350" as="targetPoint"/></mxGeometry></mxCell><mxCell id="RaRLkv8VTMjk-wRqg82v-27" value="A" style="ellipse;whiteSpace=wrap;html=1;aspect=fixed;fontSize=16;" parent="1" vertex="1"><mxGeometry x="30" y="360" width="34" height="34" as="geometry"/></mxCell><mxCell id="RaRLkv8VTMjk-wRqg82v-31" value="Shift" style="swimlane;fontStyle=0;childLayout=stackLayout;horizontal=1;startSize=26;fillColor=none;horizontalStack=0;resizeParent=1;resizeParentMax=0;resizeLast=0;collapsible=1;marginBottom=0;whiteSpace=wrap;html=1;" parent="1" vertex="1"><mxGeometry x="378" y="420" width="110" height="78" as="geometry"/></mxCell><mxCell id="RaRLkv8VTMjk-wRqg82v-32" value="id: 29" style="text;strokeColor=none;fillColor=none;align=left;verticalAlign=top;spacingLeft=4;spacingRight=4;overflow=hidden;rotatable=0;points=[[0,0.5],[1,0.5]];portConstraint=eastwest;whiteSpace=wrap;html=1;" parent="RaRLkv8VTMjk-wRqg82v-31" vertex="1"><mxGeometry y="26" width="110" height="26" as="geometry"/></mxCell><mxCell id="RaRLkv8VTMjk-wRqg82v-33" value="date: 20/08/2022" style="text;strokeColor=none;fillColor=none;align=left;verticalAlign=top;spacingLeft=4;spacingRight=4;overflow=hidden;rotatable=0;points=[[0,0.5],[1,0.5]];portConstraint=eastwest;whiteSpace=wrap;html=1;" parent="RaRLkv8VTMjk-wRqg82v-31" vertex="1"><mxGeometry y="52" width="110" height="26" as="geometry"/></mxCell><mxCell id="RaRLkv8VTMjk-wRqg82v-35" value="BranchShift" style="swimlane;fontStyle=0;childLayout=stackLayout;horizontal=1;startSize=26;fillColor=none;horizontalStack=0;resizeParent=1;resizeParentMax=0;resizeLast=0;collapsible=1;marginBottom=0;whiteSpace=wrap;html=1;" parent="1" vertex="1"><mxGeometry x="200" y="420" width="110" height="78" as="geometry"/></mxCell><mxCell id="RaRLkv8VTMjk-wRqg82v-36" value="branch: Kfar Saba" style="text;strokeColor=none;fillColor=none;align=left;verticalAlign=top;spacingLeft=4;spacingRight=4;overflow=hidden;rotatable=0;points=[[0,0.5],[1,0.5]];portConstraint=eastwest;whiteSpace=wrap;html=1;" parent="RaRLkv8VTMjk-wRqg82v-35" vertex="1"><mxGeometry y="26" width="110" height="26" as="geometry"/></mxCell><mxCell id="RaRLkv8VTMjk-wRqg82v-37" value="typeBS: E" style="text;strokeColor=none;fillColor=none;align=left;verticalAlign=top;spacingLeft=4;spacingRight=4;overflow=hidden;rotatable=0;points=[[0,0.5],[1,0.5]];portConstraint=eastwest;whiteSpace=wrap;html=1;" parent="RaRLkv8VTMjk-wRqg82v-35" vertex="1"><mxGeometry y="52" width="110" height="26" as="geometry"/></mxCell><mxCell id="RaRLkv8VTMjk-wRqg82v-96" value="has" style="edgeStyle=orthogonalEdgeStyle;rounded=0;orthogonalLoop=1;jettySize=auto;html=1;exitX=0.75;exitY=0;exitDx=0;exitDy=0;entryX=0.385;entryY=1.013;entryDx=0;entryDy=0;entryPerimeter=0;startArrow=classic;startFill=1;endArrow=none;endFill=0;" parent="1" source="RaRLkv8VTMjk-wRqg82v-38" target="RaRLkv8VTMjk-wRqg82v-37" edge="1"><mxGeometry relative="1" as="geometry"/></mxCell><mxCell id="RaRLkv8VTMjk-wRqg82v-38" value="Employee" style="swimlane;fontStyle=0;childLayout=stackLayout;horizontal=1;startSize=26;fillColor=none;horizontalStack=0;resizeParent=1;resizeParentMax=0;resizeLast=0;collapsible=1;marginBottom=0;whiteSpace=wrap;html=1;" parent="1" vertex="1"><mxGeometry x="40" y="585" width="190" height="364" as="geometry"/></mxCell><mxCell id="RaRLkv8VTMjk-wRqg82v-39" value="employeeId: 345678901" style="text;strokeColor=none;fillColor=none;align=left;verticalAlign=top;spacingLeft=4;spacingRight=4;overflow=hidden;rotatable=0;points=[[0,0.5],[1,0.5]];portConstraint=eastwest;whiteSpace=wrap;html=1;" parent="RaRLkv8VTMjk-wRqg82v-38" vertex="1"><mxGeometry y="26" width="190" height="26" as="geometry"/></mxCell><mxCell id="RaRLkv8VTMjk-wRqg82v-40" value="firstName: Anna" style="text;strokeColor=none;fillColor=none;align=left;verticalAlign=top;spacingLeft=4;spacingRight=4;overflow=hidden;rotatable=0;points=[[0,0.5],[1,0.5]];portConstraint=eastwest;whiteSpace=wrap;html=1;" parent="RaRLkv8VTMjk-wRqg82v-38" vertex="1"><mxGeometry y="52" width="190" height="26" as="geometry"/></mxCell><mxCell id="RaRLkv8VTMjk-wRqg82v-41" value="lastName: Zak" style="text;strokeColor=none;fillColor=none;align=left;verticalAlign=top;spacingLeft=4;spacingRight=4;overflow=hidden;rotatable=0;points=[[0,0.5],[1,0.5]];portConstraint=eastwest;whiteSpace=wrap;html=1;" parent="RaRLkv8VTMjk-wRqg82v-38" vertex="1"><mxGeometry y="78" width="190" height="26" as="geometry"/></mxCell><mxCell id="RaRLkv8VTMjk-wRqg82v-42" value="password: Dv123455" style="text;strokeColor=none;fillColor=none;align=left;verticalAlign=top;spacingLeft=4;spacingRight=4;overflow=hidden;rotatable=0;points=[[0,0.5],[1,0.5]];portConstraint=eastwest;whiteSpace=wrap;html=1;" parent="RaRLkv8VTMjk-wRqg82v-38" vertex="1"><mxGeometry y="104" width="190" height="26" as="geometry"/></mxCell><mxCell id="RaRLkv8VTMjk-wRqg82v-43" value="accountNumber: 3234567" style="text;strokeColor=none;fillColor=none;align=left;verticalAlign=top;spacingLeft=4;spacingRight=4;overflow=hidden;rotatable=0;points=[[0,0.5],[1,0.5]];portConstraint=eastwest;whiteSpace=wrap;html=1;" parent="RaRLkv8VTMjk-wRqg82v-38" vertex="1"><mxGeometry y="130" width="190" height="26" as="geometry"/></mxCell><mxCell id="RaRLkv8VTMjk-wRqg82v-46" value="branchBankNumber: 56" style="text;strokeColor=none;fillColor=none;align=left;verticalAlign=top;spacingLeft=4;spacingRight=4;overflow=hidden;rotatable=0;points=[[0,0.5],[1,0.5]];portConstraint=eastwest;whiteSpace=wrap;html=1;" parent="RaRLkv8VTMjk-wRqg82v-38" vertex="1"><mxGeometry y="156" width="190" height="26" as="geometry"/></mxCell><mxCell id="RaRLkv8VTMjk-wRqg82v-47" value="salary: 40" style="text;strokeColor=none;fillColor=none;align=left;verticalAlign=top;spacingLeft=4;spacingRight=4;overflow=hidden;rotatable=0;points=[[0,0.5],[1,0.5]];portConstraint=eastwest;whiteSpace=wrap;html=1;" parent="RaRLkv8VTMjk-wRqg82v-38" vertex="1"><mxGeometry y="182" width="190" height="26" as="geometry"/></mxCell><mxCell id="RaRLkv8VTMjk-wRqg82v-45" value="termsOfEmployment: &quot;...&quot;" style="text;strokeColor=none;fillColor=none;align=left;verticalAlign=top;spacingLeft=4;spacingRight=4;overflow=hidden;rotatable=0;points=[[0,0.5],[1,0.5]];portConstraint=eastwest;whiteSpace=wrap;html=1;" parent="RaRLkv8VTMjk-wRqg82v-38" vertex="1"><mxGeometry y="208" width="190" height="26" as="geometry"/></mxCell><mxCell id="RaRLkv8VTMjk-wRqg82v-48" value="statusOfEmployee: single" style="text;strokeColor=none;fillColor=none;align=left;verticalAlign=top;spacingLeft=4;spacingRight=4;overflow=hidden;rotatable=0;points=[[0,0.5],[1,0.5]];portConstraint=eastwest;whiteSpace=wrap;html=1;" parent="RaRLkv8VTMjk-wRqg82v-38" vertex="1"><mxGeometry y="234" width="190" height="26" as="geometry"/></mxCell><mxCell id="RaRLkv8VTMjk-wRqg82v-51" value="phoneNumber:&amp;nbsp;0525381648" style="text;strokeColor=none;fillColor=none;align=left;verticalAlign=top;spacingLeft=4;spacingRight=4;overflow=hidden;rotatable=0;points=[[0,0.5],[1,0.5]];portConstraint=eastwest;whiteSpace=wrap;html=1;" parent="RaRLkv8VTMjk-wRqg82v-38" vertex="1"><mxGeometry y="260" width="190" height="26" as="geometry"/></mxCell><mxCell id="RaRLkv8VTMjk-wRqg82v-49" value="RoleType: BRANCHEMPLOYEE" style="text;strokeColor=none;fillColor=none;align=left;verticalAlign=top;spacingLeft=4;spacingRight=4;overflow=hidden;rotatable=0;points=[[0,0.5],[1,0.5]];portConstraint=eastwest;whiteSpace=wrap;html=1;" parent="RaRLkv8VTMjk-wRqg82v-38" vertex="1"><mxGeometry y="286" width="190" height="26" as="geometry"/></mxCell><mxCell id="RaRLkv8VTMjk-wRqg82v-50" value="hireDate: 05/05/2022" style="text;strokeColor=none;fillColor=none;align=left;verticalAlign=top;spacingLeft=4;spacingRight=4;overflow=hidden;rotatable=0;points=[[0,0.5],[1,0.5]];portConstraint=eastwest;whiteSpace=wrap;html=1;" parent="RaRLkv8VTMjk-wRqg82v-38" vertex="1"><mxGeometry y="312" width="190" height="26" as="geometry"/></mxCell><mxCell id="RaRLkv8VTMjk-wRqg82v-44" value="isLogged: false" style="text;strokeColor=none;fillColor=none;align=left;verticalAlign=top;spacingLeft=4;spacingRight=4;overflow=hidden;rotatable=0;points=[[0,0.5],[1,0.5]];portConstraint=eastwest;whiteSpace=wrap;html=1;" parent="RaRLkv8VTMjk-wRqg82v-38" vertex="1"><mxGeometry y="338" width="190" height="26" as="geometry"/></mxCell><mxCell id="RaRLkv8VTMjk-wRqg82v-52" value="Employee" style="swimlane;fontStyle=0;childLayout=stackLayout;horizontal=1;startSize=26;fillColor=none;horizontalStack=0;resizeParent=1;resizeParentMax=0;resizeLast=0;collapsible=1;marginBottom=0;whiteSpace=wrap;html=1;" parent="1" vertex="1"><mxGeometry x="830" y="585" width="190" height="364" as="geometry"/></mxCell><mxCell id="RaRLkv8VTMjk-wRqg82v-53" value="employee: 234567890" style="text;strokeColor=none;fillColor=none;align=left;verticalAlign=top;spacingLeft=4;spacingRight=4;overflow=hidden;rotatable=0;points=[[0,0.5],[1,0.5]];portConstraint=eastwest;whiteSpace=wrap;html=1;" parent="RaRLkv8VTMjk-wRqg82v-52" vertex="1"><mxGeometry y="26" width="190" height="26" as="geometry"/></mxCell><mxCell id="RaRLkv8VTMjk-wRqg82v-54" value="firstName: Ella" style="text;strokeColor=none;fillColor=none;align=left;verticalAlign=top;spacingLeft=4;spacingRight=4;overflow=hidden;rotatable=0;points=[[0,0.5],[1,0.5]];portConstraint=eastwest;whiteSpace=wrap;html=1;" parent="RaRLkv8VTMjk-wRqg82v-52" vertex="1"><mxGeometry y="52" width="190" height="26" as="geometry"/></mxCell><mxCell id="RaRLkv8VTMjk-wRqg82v-55" value="lastName: Lee" style="text;strokeColor=none;fillColor=none;align=left;verticalAlign=top;spacingLeft=4;spacingRight=4;overflow=hidden;rotatable=0;points=[[0,0.5],[1,0.5]];portConstraint=eastwest;whiteSpace=wrap;html=1;" parent="RaRLkv8VTMjk-wRqg82v-52" vertex="1"><mxGeometry y="78" width="190" height="26" as="geometry"/></mxCell><mxCell id="RaRLkv8VTMjk-wRqg82v-56" value="password: Fv112233" style="text;strokeColor=none;fillColor=none;align=left;verticalAlign=top;spacingLeft=4;spacingRight=4;overflow=hidden;rotatable=0;points=[[0,0.5],[1,0.5]];portConstraint=eastwest;whiteSpace=wrap;html=1;" parent="RaRLkv8VTMjk-wRqg82v-52" vertex="1"><mxGeometry y="104" width="190" height="26" as="geometry"/></mxCell><mxCell id="RaRLkv8VTMjk-wRqg82v-57" value="accountNumber: 5678912" style="text;strokeColor=none;fillColor=none;align=left;verticalAlign=top;spacingLeft=4;spacingRight=4;overflow=hidden;rotatable=0;points=[[0,0.5],[1,0.5]];portConstraint=eastwest;whiteSpace=wrap;html=1;" parent="RaRLkv8VTMjk-wRqg82v-52" vertex="1"><mxGeometry y="130" width="190" height="26" as="geometry"/></mxCell><mxCell id="RaRLkv8VTMjk-wRqg82v-58" value="branchBankNumber: 34" style="text;strokeColor=none;fillColor=none;align=left;verticalAlign=top;spacingLeft=4;spacingRight=4;overflow=hidden;rotatable=0;points=[[0,0.5],[1,0.5]];portConstraint=eastwest;whiteSpace=wrap;html=1;" parent="RaRLkv8VTMjk-wRqg82v-52" vertex="1"><mxGeometry y="156" width="190" height="26" as="geometry"/></mxCell><mxCell id="RaRLkv8VTMjk-wRqg82v-59" value="salary: 50" style="text;strokeColor=none;fillColor=none;align=left;verticalAlign=top;spacingLeft=4;spacingRight=4;overflow=hidden;rotatable=0;points=[[0,0.5],[1,0.5]];portConstraint=eastwest;whiteSpace=wrap;html=1;" parent="RaRLkv8VTMjk-wRqg82v-52" vertex="1"><mxGeometry y="182" width="190" height="26" as="geometry"/></mxCell><mxCell id="RaRLkv8VTMjk-wRqg82v-60" value="termsOfEmployment: &quot;...&quot;" style="text;strokeColor=none;fillColor=none;align=left;verticalAlign=top;spacingLeft=4;spacingRight=4;overflow=hidden;rotatable=0;points=[[0,0.5],[1,0.5]];portConstraint=eastwest;whiteSpace=wrap;html=1;" parent="RaRLkv8VTMjk-wRqg82v-52" vertex="1"><mxGeometry y="208" width="190" height="26" as="geometry"/></mxCell><mxCell id="RaRLkv8VTMjk-wRqg82v-61" value="statusOfEmployee: mom" style="text;strokeColor=none;fillColor=none;align=left;verticalAlign=top;spacingLeft=4;spacingRight=4;overflow=hidden;rotatable=0;points=[[0,0.5],[1,0.5]];portConstraint=eastwest;whiteSpace=wrap;html=1;" parent="RaRLkv8VTMjk-wRqg82v-52" vertex="1"><mxGeometry y="234" width="190" height="26" as="geometry"/></mxCell><mxCell id="RaRLkv8VTMjk-wRqg82v-62" value="phoneNumber:&amp;nbsp;0531122334" style="text;strokeColor=none;fillColor=none;align=left;verticalAlign=top;spacingLeft=4;spacingRight=4;overflow=hidden;rotatable=0;points=[[0,0.5],[1,0.5]];portConstraint=eastwest;whiteSpace=wrap;html=1;" parent="RaRLkv8VTMjk-wRqg82v-52" vertex="1"><mxGeometry y="260" width="190" height="26" as="geometry"/></mxCell><mxCell id="RaRLkv8VTMjk-wRqg82v-63" value="RoleType: HRMANAGER" style="text;strokeColor=none;fillColor=none;align=left;verticalAlign=top;spacingLeft=4;spacingRight=4;overflow=hidden;rotatable=0;points=[[0,0.5],[1,0.5]];portConstraint=eastwest;whiteSpace=wrap;html=1;" parent="RaRLkv8VTMjk-wRqg82v-52" vertex="1"><mxGeometry y="286" width="190" height="26" as="geometry"/></mxCell><mxCell id="RaRLkv8VTMjk-wRqg82v-64" value="hireDate: 09/09/2022" style="text;strokeColor=none;fillColor=none;align=left;verticalAlign=top;spacingLeft=4;spacingRight=4;overflow=hidden;rotatable=0;points=[[0,0.5],[1,0.5]];portConstraint=eastwest;whiteSpace=wrap;html=1;" parent="RaRLkv8VTMjk-wRqg82v-52" vertex="1"><mxGeometry y="312" width="190" height="26" as="geometry"/></mxCell><mxCell id="RaRLkv8VTMjk-wRqg82v-65" value="isLogged: true" style="text;strokeColor=none;fillColor=none;align=left;verticalAlign=top;spacingLeft=4;spacingRight=4;overflow=hidden;rotatable=0;points=[[0,0.5],[1,0.5]];portConstraint=eastwest;whiteSpace=wrap;html=1;" parent="RaRLkv8VTMjk-wRqg82v-52" vertex="1"><mxGeometry y="338" width="190" height="26" as="geometry"/></mxCell><mxCell id="RaRLkv8VTMjk-wRqg82v-97" value="has" style="edgeStyle=orthogonalEdgeStyle;rounded=0;orthogonalLoop=1;jettySize=auto;html=1;exitX=0.5;exitY=0;exitDx=0;exitDy=0;" parent="1" source="RaRLkv8VTMjk-wRqg82v-66" target="RaRLkv8VTMjk-wRqg82v-90" edge="1"><mxGeometry relative="1" as="geometry"><Array as="points"><mxPoint x="667" y="550"/><mxPoint x="667" y="550"/></Array></mxGeometry></mxCell><mxCell id="RaRLkv8VTMjk-wRqg82v-66" value="Employee" style="swimlane;fontStyle=0;childLayout=stackLayout;horizontal=1;startSize=26;fillColor=none;horizontalStack=0;resizeParent=1;resizeParentMax=0;resizeLast=0;collapsible=1;marginBottom=0;whiteSpace=wrap;html=1;" parent="1" vertex="1"><mxGeometry x="572" y="585" width="190" height="364" as="geometry"/></mxCell><mxCell id="RaRLkv8VTMjk-wRqg82v-67" value="employee: 123456789" style="text;strokeColor=none;fillColor=none;align=left;verticalAlign=top;spacingLeft=4;spacingRight=4;overflow=hidden;rotatable=0;points=[[0,0.5],[1,0.5]];portConstraint=eastwest;whiteSpace=wrap;html=1;" parent="RaRLkv8VTMjk-wRqg82v-66" vertex="1"><mxGeometry y="26" width="190" height="26" as="geometry"/></mxCell><mxCell id="RaRLkv8VTMjk-wRqg82v-68" value="firstName: Harel" style="text;strokeColor=none;fillColor=none;align=left;verticalAlign=top;spacingLeft=4;spacingRight=4;overflow=hidden;rotatable=0;points=[[0,0.5],[1,0.5]];portConstraint=eastwest;whiteSpace=wrap;html=1;" parent="RaRLkv8VTMjk-wRqg82v-66" vertex="1"><mxGeometry y="52" width="190" height="26" as="geometry"/></mxCell><mxCell id="RaRLkv8VTMjk-wRqg82v-69" value="lastName: Skaat" style="text;strokeColor=none;fillColor=none;align=left;verticalAlign=top;spacingLeft=4;spacingRight=4;overflow=hidden;rotatable=0;points=[[0,0.5],[1,0.5]];portConstraint=eastwest;whiteSpace=wrap;html=1;" parent="RaRLkv8VTMjk-wRqg82v-66" vertex="1"><mxGeometry y="78" width="190" height="26" as="geometry"/></mxCell><mxCell id="RaRLkv8VTMjk-wRqg82v-70" value="password: Ac123456" style="text;strokeColor=none;fillColor=none;align=left;verticalAlign=top;spacingLeft=4;spacingRight=4;overflow=hidden;rotatable=0;points=[[0,0.5],[1,0.5]];portConstraint=eastwest;whiteSpace=wrap;html=1;" parent="RaRLkv8VTMjk-wRqg82v-66" vertex="1"><mxGeometry y="104" width="190" height="26" as="geometry"/></mxCell><mxCell id="RaRLkv8VTMjk-wRqg82v-71" value="accountNumber: 1234567" style="text;strokeColor=none;fillColor=none;align=left;verticalAlign=top;spacingLeft=4;spacingRight=4;overflow=hidden;rotatable=0;points=[[0,0.5],[1,0.5]];portConstraint=eastwest;whiteSpace=wrap;html=1;" parent="RaRLkv8VTMjk-wRqg82v-66" vertex="1"><mxGeometry y="130" width="190" height="26" as="geometry"/></mxCell><mxCell id="RaRLkv8VTMjk-wRqg82v-72" value="branchBankNumber: 12" style="text;strokeColor=none;fillColor=none;align=left;verticalAlign=top;spacingLeft=4;spacingRight=4;overflow=hidden;rotatable=0;points=[[0,0.5],[1,0.5]];portConstraint=eastwest;whiteSpace=wrap;html=1;" parent="RaRLkv8VTMjk-wRqg82v-66" vertex="1"><mxGeometry y="156" width="190" height="26" as="geometry"/></mxCell><mxCell id="RaRLkv8VTMjk-wRqg82v-73" value="salary: 30" style="text;strokeColor=none;fillColor=none;align=left;verticalAlign=top;spacingLeft=4;spacingRight=4;overflow=hidden;rotatable=0;points=[[0,0.5],[1,0.5]];portConstraint=eastwest;whiteSpace=wrap;html=1;" parent="RaRLkv8VTMjk-wRqg82v-66" vertex="1"><mxGeometry y="182" width="190" height="26" as="geometry"/></mxCell><mxCell id="RaRLkv8VTMjk-wRqg82v-74" value="termsOfEmployment: &quot;...&quot;" style="text;strokeColor=none;fillColor=none;align=left;verticalAlign=top;spacingLeft=4;spacingRight=4;overflow=hidden;rotatable=0;points=[[0,0.5],[1,0.5]];portConstraint=eastwest;whiteSpace=wrap;html=1;" parent="RaRLkv8VTMjk-wRqg82v-66" vertex="1"><mxGeometry y="208" width="190" height="26" as="geometry"/></mxCell><mxCell id="RaRLkv8VTMjk-wRqg82v-75" value="statusOfEmployee: dad, singer" style="text;strokeColor=none;fillColor=none;align=left;verticalAlign=top;spacingLeft=4;spacingRight=4;overflow=hidden;rotatable=0;points=[[0,0.5],[1,0.5]];portConstraint=eastwest;whiteSpace=wrap;html=1;" parent="RaRLkv8VTMjk-wRqg82v-66" vertex="1"><mxGeometry y="234" width="190" height="26" as="geometry"/></mxCell><mxCell id="RaRLkv8VTMjk-wRqg82v-76" value="phoneNumber: 0541234567" style="text;strokeColor=none;fillColor=none;align=left;verticalAlign=top;spacingLeft=4;spacingRight=4;overflow=hidden;rotatable=0;points=[[0,0.5],[1,0.5]];portConstraint=eastwest;whiteSpace=wrap;html=1;" parent="RaRLkv8VTMjk-wRqg82v-66" vertex="1"><mxGeometry y="260" width="190" height="26" as="geometry"/></mxCell><mxCell id="RaRLkv8VTMjk-wRqg82v-77" value="RoleType: BRANCHEMPLOYEE" style="text;strokeColor=none;fillColor=none;align=left;verticalAlign=top;spacingLeft=4;spacingRight=4;overflow=hidden;rotatable=0;points=[[0,0.5],[1,0.5]];portConstraint=eastwest;whiteSpace=wrap;html=1;" parent="RaRLkv8VTMjk-wRqg82v-66" vertex="1"><mxGeometry y="286" width="190" height="26" as="geometry"/></mxCell><mxCell id="RaRLkv8VTMjk-wRqg82v-78" value="hireDate: 08/08/2022" style="text;strokeColor=none;fillColor=none;align=left;verticalAlign=top;spacingLeft=4;spacingRight=4;overflow=hidden;rotatable=0;points=[[0,0.5],[1,0.5]];portConstraint=eastwest;whiteSpace=wrap;html=1;" parent="RaRLkv8VTMjk-wRqg82v-66" vertex="1"><mxGeometry y="312" width="190" height="26" as="geometry"/></mxCell><mxCell id="RaRLkv8VTMjk-wRqg82v-79" value="isLogged: false" style="text;strokeColor=none;fillColor=none;align=left;verticalAlign=top;spacingLeft=4;spacingRight=4;overflow=hidden;rotatable=0;points=[[0,0.5],[1,0.5]];portConstraint=eastwest;whiteSpace=wrap;html=1;" parent="RaRLkv8VTMjk-wRqg82v-66" vertex="1"><mxGeometry y="338" width="190" height="26" as="geometry"/></mxCell><mxCell id="RaRLkv8VTMjk-wRqg82v-94" value="has" style="edgeStyle=orthogonalEdgeStyle;rounded=0;orthogonalLoop=1;jettySize=auto;html=1;exitX=0.25;exitY=0;exitDx=0;exitDy=0;entryX=0.791;entryY=0.987;entryDx=0;entryDy=0;entryPerimeter=0;endArrow=none;endFill=0;" parent="1" source="RaRLkv8VTMjk-wRqg82v-80" target="RaRLkv8VTMjk-wRqg82v-37" edge="1"><mxGeometry relative="1" as="geometry"/></mxCell><mxCell id="RaRLkv8VTMjk-wRqg82v-80" value="Branch" style="swimlane;fontStyle=0;childLayout=stackLayout;horizontal=1;startSize=26;fillColor=none;horizontalStack=0;resizeParent=1;resizeParentMax=0;resizeLast=0;collapsible=1;marginBottom=0;whiteSpace=wrap;html=1;" parent="1" vertex="1"><mxGeometry x="300" y="585" width="190" height="156" as="geometry"/></mxCell><mxCell id="RaRLkv8VTMjk-wRqg82v-81" value="branchName: Kfar Saba" style="text;strokeColor=none;fillColor=none;align=left;verticalAlign=top;spacingLeft=4;spacingRight=4;overflow=hidden;rotatable=0;points=[[0,0.5],[1,0.5]];portConstraint=eastwest;whiteSpace=wrap;html=1;" parent="RaRLkv8VTMjk-wRqg82v-80" vertex="1"><mxGeometry y="26" width="190" height="26" as="geometry"/></mxCell><mxCell id="RaRLkv8VTMjk-wRqg82v-82" value="morningShiftStartHour: 08:00" style="text;strokeColor=none;fillColor=none;align=left;verticalAlign=top;spacingLeft=4;spacingRight=4;overflow=hidden;rotatable=0;points=[[0,0.5],[1,0.5]];portConstraint=eastwest;whiteSpace=wrap;html=1;" parent="RaRLkv8VTMjk-wRqg82v-80" vertex="1"><mxGeometry y="52" width="190" height="26" as="geometry"/></mxCell><mxCell id="RaRLkv8VTMjk-wRqg82v-86" value="morningShiftEndHour: 15:00" style="text;strokeColor=none;fillColor=none;align=left;verticalAlign=top;spacingLeft=4;spacingRight=4;overflow=hidden;rotatable=0;points=[[0,0.5],[1,0.5]];portConstraint=eastwest;whiteSpace=wrap;html=1;" parent="RaRLkv8VTMjk-wRqg82v-80" vertex="1"><mxGeometry y="78" width="190" height="26" as="geometry"/></mxCell><mxCell id="RaRLkv8VTMjk-wRqg82v-85" value="eveningShiftStartHour: 15:00" style="text;strokeColor=none;fillColor=none;align=left;verticalAlign=top;spacingLeft=4;spacingRight=4;overflow=hidden;rotatable=0;points=[[0,0.5],[1,0.5]];portConstraint=eastwest;whiteSpace=wrap;html=1;" parent="RaRLkv8VTMjk-wRqg82v-80" vertex="1"><mxGeometry y="104" width="190" height="26" as="geometry"/></mxCell><mxCell id="RaRLkv8VTMjk-wRqg82v-84" value="eveningShiftEndHour: 22:00" style="text;strokeColor=none;fillColor=none;align=left;verticalAlign=top;spacingLeft=4;spacingRight=4;overflow=hidden;rotatable=0;points=[[0,0.5],[1,0.5]];portConstraint=eastwest;whiteSpace=wrap;html=1;" parent="RaRLkv8VTMjk-wRqg82v-80" vertex="1"><mxGeometry y="130" width="190" height="26" as="geometry"/></mxCell><mxCell id="RaRLkv8VTMjk-wRqg82v-87" value="EmployeeConstraint" style="swimlane;fontStyle=0;childLayout=stackLayout;horizontal=1;startSize=26;fillColor=none;horizontalStack=0;resizeParent=1;resizeParentMax=0;resizeLast=0;collapsible=1;marginBottom=0;whiteSpace=wrap;html=1;" parent="1" vertex="1"><mxGeometry x="577" y="420" width="180" height="120" as="geometry"/></mxCell><mxCell id="RaRLkv8VTMjk-wRqg82v-88" value="constraintId: 40" style="text;strokeColor=none;fillColor=none;align=left;verticalAlign=top;spacingLeft=4;spacingRight=4;overflow=hidden;rotatable=0;points=[[0,0.5],[1,0.5]];portConstraint=eastwest;whiteSpace=wrap;html=1;" parent="RaRLkv8VTMjk-wRqg82v-87" vertex="1"><mxGeometry y="26" width="180" height="26" as="geometry"/></mxCell><mxCell id="RaRLkv8VTMjk-wRqg82v-89" value="shiftId: 29" style="text;strokeColor=none;fillColor=none;align=left;verticalAlign=top;spacingLeft=4;spacingRight=4;overflow=hidden;rotatable=0;points=[[0,0.5],[1,0.5]];portConstraint=eastwest;whiteSpace=wrap;html=1;" parent="RaRLkv8VTMjk-wRqg82v-87" vertex="1"><mxGeometry y="52" width="180" height="26" as="geometry"/></mxCell><mxCell id="RaRLkv8VTMjk-wRqg82v-90" value="description: &quot;special event, performance at wedding&quot;" style="text;strokeColor=none;fillColor=none;align=left;verticalAlign=top;spacingLeft=4;spacingRight=4;overflow=hidden;rotatable=0;points=[[0,0.5],[1,0.5]];portConstraint=eastwest;whiteSpace=wrap;html=1;" parent="RaRLkv8VTMjk-wRqg82v-87" vertex="1"><mxGeometry y="78" width="180" height="42" as="geometry"/></mxCell><mxCell id="RaRLkv8VTMjk-wRqg82v-92" value="contains" style="edgeStyle=orthogonalEdgeStyle;rounded=0;orthogonalLoop=1;jettySize=auto;html=1;exitX=0;exitY=0.5;exitDx=0;exitDy=0;entryX=1;entryY=0.5;entryDx=0;entryDy=0;endArrow=diamondThin;endFill=0;" parent="1" source="RaRLkv8VTMjk-wRqg82v-91" target="RaRLkv8VTMjk-wRqg82v-10" edge="1"><mxGeometry relative="1" as="geometry"/></mxCell><mxCell id="RaRLkv8VTMjk-wRqg82v-91" value="ResourceController" style="swimlane;fontStyle=0;childLayout=stackLayout;horizontal=1;startSize=26;fillColor=none;horizontalStack=0;resizeParent=1;resizeParentMax=0;resizeLast=0;collapsible=1;marginBottom=0;whiteSpace=wrap;html=1;" parent="1" vertex="1"><mxGeometry x="794" y="299" width="140" height="52" as="geometry"/></mxCell><mxCell id="RaRLkv8VTMjk-wRqg82v-93" style="edgeStyle=orthogonalEdgeStyle;rounded=0;orthogonalLoop=1;jettySize=auto;html=1;exitX=1;exitY=0.5;exitDx=0;exitDy=0;endArrow=block;endFill=0;" parent="1" source="RaRLkv8VTMjk-wRqg82v-36" target="RaRLkv8VTMjk-wRqg82v-32" edge="1"><mxGeometry relative="1" as="geometry"/></mxCell><mxCell id="RaRLkv8VTMjk-wRqg82v-111" style="edgeStyle=orthogonalEdgeStyle;rounded=0;orthogonalLoop=1;jettySize=auto;html=1;exitX=0.5;exitY=0;exitDx=0;exitDy=0;entryX=0.5;entryY=1.038;entryDx=0;entryDy=0;entryPerimeter=0;endArrow=block;endFill=0;" parent="1" source="RaRLkv8VTMjk-wRqg82v-98" target="RaRLkv8VTMjk-wRqg82v-44" edge="1"><mxGeometry relative="1" as="geometry"/></mxCell><mxCell id="RaRLkv8VTMjk-wRqg82v-98" value="BranchEmployee" style="swimlane;fontStyle=0;childLayout=stackLayout;horizontal=1;startSize=26;fillColor=none;horizontalStack=0;resizeParent=1;resizeParentMax=0;resizeLast=0;collapsible=1;marginBottom=0;whiteSpace=wrap;html=1;" parent="1" vertex="1"><mxGeometry x="40" y="980" width="190" height="104" as="geometry"/></mxCell><mxCell id="RaRLkv8VTMjk-wRqg82v-99" value="managment: true" style="text;strokeColor=none;fillColor=none;align=left;verticalAlign=top;spacingLeft=4;spacingRight=4;overflow=hidden;rotatable=0;points=[[0,0.5],[1,0.5]];portConstraint=eastwest;whiteSpace=wrap;html=1;" parent="RaRLkv8VTMjk-wRqg82v-98" vertex="1"><mxGeometry y="26" width="190" height="26" as="geometry"/></mxCell><mxCell id="RaRLkv8VTMjk-wRqg82v-100" value="cancellations: true" style="text;strokeColor=none;fillColor=none;align=left;verticalAlign=top;spacingLeft=4;spacingRight=4;overflow=hidden;rotatable=0;points=[[0,0.5],[1,0.5]];portConstraint=eastwest;whiteSpace=wrap;html=1;" parent="RaRLkv8VTMjk-wRqg82v-98" vertex="1"><mxGeometry y="52" width="190" height="26" as="geometry"/></mxCell><mxCell id="zWBRZzIZpe4n6wj5ybjD-1" value="roles: [ShiftManager]" style="text;strokeColor=none;fillColor=none;align=left;verticalAlign=top;spacingLeft=4;spacingRight=4;overflow=hidden;rotatable=0;points=[[0,0.5],[1,0.5]];portConstraint=eastwest;whiteSpace=wrap;html=1;" parent="RaRLkv8VTMjk-wRqg82v-98" vertex="1"><mxGeometry y="78" width="190" height="26" as="geometry"/></mxCell><mxCell id="RaRLkv8VTMjk-wRqg82v-115" style="edgeStyle=orthogonalEdgeStyle;rounded=0;orthogonalLoop=1;jettySize=auto;html=1;exitX=0.5;exitY=0;exitDx=0;exitDy=0;entryX=0.5;entryY=1.038;entryDx=0;entryDy=0;entryPerimeter=0;endArrow=block;endFill=0;" parent="1" source="RaRLkv8VTMjk-wRqg82v-105" target="RaRLkv8VTMjk-wRqg82v-65" edge="1"><mxGeometry relative="1" as="geometry"/></mxCell><mxCell id="RaRLkv8VTMjk-wRqg82v-105" value="BranchEmployee" style="swimlane;fontStyle=0;childLayout=stackLayout;horizontal=1;startSize=26;fillColor=none;horizontalStack=0;resizeParent=1;resizeParentMax=0;resizeLast=0;collapsible=1;marginBottom=0;whiteSpace=wrap;html=1;" parent="1" vertex="1"><mxGeometry x="830" y="980" width="190" height="104" as="geometry"/></mxCell><mxCell id="RaRLkv8VTMjk-wRqg82v-106" value="managment: true" style="text;strokeColor=none;fillColor=none;align=left;verticalAlign=top;spacingLeft=4;spacingRight=4;overflow=hidden;rotatable=0;points=[[0,0.5],[1,0.5]];portConstraint=eastwest;whiteSpace=wrap;html=1;" parent="RaRLkv8VTMjk-wRqg82v-105" vertex="1"><mxGeometry y="26" width="190" height="26" as="geometry"/></mxCell><mxCell id="RaRLkv8VTMjk-wRqg82v-107" value="cancellations: true" style="text;strokeColor=none;fillColor=none;align=left;verticalAlign=top;spacingLeft=4;spacingRight=4;overflow=hidden;rotatable=0;points=[[0,0.5],[1,0.5]];portConstraint=eastwest;whiteSpace=wrap;html=1;" parent="RaRLkv8VTMjk-wRqg82v-105" vertex="1"><mxGeometry y="52" width="190" height="26" as="geometry"/></mxCell><mxCell id="zWBRZzIZpe4n6wj5ybjD-3" value="roles: []" style="text;strokeColor=none;fillColor=none;align=left;verticalAlign=top;spacingLeft=4;spacingRight=4;overflow=hidden;rotatable=0;points=[[0,0.5],[1,0.5]];portConstraint=eastwest;whiteSpace=wrap;html=1;" parent="RaRLkv8VTMjk-wRqg82v-105" vertex="1"><mxGeometry y="78" width="190" height="26" as="geometry"/></mxCell><mxCell id="RaRLkv8VTMjk-wRqg82v-114" style="edgeStyle=orthogonalEdgeStyle;rounded=0;orthogonalLoop=1;jettySize=auto;html=1;exitX=0.5;exitY=0;exitDx=0;exitDy=0;entryX=0.493;entryY=1.051;entryDx=0;entryDy=0;entryPerimeter=0;endArrow=block;endFill=0;" parent="1" source="RaRLkv8VTMjk-wRqg82v-108" target="RaRLkv8VTMjk-wRqg82v-79" edge="1"><mxGeometry relative="1" as="geometry"/></mxCell><mxCell id="RaRLkv8VTMjk-wRqg82v-108" value="BranchEmployee" style="swimlane;fontStyle=0;childLayout=stackLayout;horizontal=1;startSize=26;fillColor=none;horizontalStack=0;resizeParent=1;resizeParentMax=0;resizeLast=0;collapsible=1;marginBottom=0;whiteSpace=wrap;html=1;" parent="1" vertex="1"><mxGeometry x="572" y="980" width="190" height="104" as="geometry"/></mxCell><mxCell id="RaRLkv8VTMjk-wRqg82v-109" value="managment: false" style="text;strokeColor=none;fillColor=none;align=left;verticalAlign=top;spacingLeft=4;spacingRight=4;overflow=hidden;rotatable=0;points=[[0,0.5],[1,0.5]];portConstraint=eastwest;whiteSpace=wrap;html=1;" parent="RaRLkv8VTMjk-wRqg82v-108" vertex="1"><mxGeometry y="26" width="190" height="26" as="geometry"/></mxCell><mxCell id="RaRLkv8VTMjk-wRqg82v-110" value="cancellations: false" style="text;strokeColor=none;fillColor=none;align=left;verticalAlign=top;spacingLeft=4;spacingRight=4;overflow=hidden;rotatable=0;points=[[0,0.5],[1,0.5]];portConstraint=eastwest;whiteSpace=wrap;html=1;" parent="RaRLkv8VTMjk-wRqg82v-108" vertex="1"><mxGeometry y="52" width="190" height="26" as="geometry"/></mxCell><mxCell id="zWBRZzIZpe4n6wj5ybjD-2" value="roles: [Store Keeper]" style="text;strokeColor=none;fillColor=none;align=left;verticalAlign=top;spacingLeft=4;spacingRight=4;overflow=hidden;rotatable=0;points=[[0,0.5],[1,0.5]];portConstraint=eastwest;whiteSpace=wrap;html=1;" parent="RaRLkv8VTMjk-wRqg82v-108" vertex="1"><mxGeometry y="78" width="190" height="26" as="geometry"/></mxCell><mxCell id="RaRLkv8VTMjk-wRqg82v-116" value="הראל סקעת, שהינו בעל הכשרה לתפקיד המסנאי, ביקש ממנהלת כוח האדם אלה לי להתחיל לעבוד ב- 08/08/2022. הראל מתגורר בעיר כפר סבא ולכן שובץ לסניף כפר סבא. סניף זה עובד בימים א'-ה', החל מהשעה 08:00 בבוקר ועד 22:00 בערב.&lt;br&gt;הראל מופיע כזמר לעיתים, לכן בתאריך 20/08/2022 הוא אינו יכול לעבוד במשמרת הערב. עקב כך, הוא הזין אילוץ זה במערכת. אנה זק הינה היחידה כאחראית משמרת של משמרת זו." style="text;html=1;strokeColor=none;fillColor=none;align=right;verticalAlign=middle;whiteSpace=wrap;rounded=0;" parent="1" vertex="1"><mxGeometry x="798" y="460" width="254" height="30" as="geometry"/></mxCell><mxCell id="RaRLkv8VTMjk-wRqg82v-149" value="" style="group" parent="1" vertex="1" connectable="0"><mxGeometry x="46.5" y="1275" width="115" height="112" as="geometry"/></mxCell><mxCell id="RaRLkv8VTMjk-wRqg82v-123" value="BranchDAO" style="swimlane;fontStyle=0;childLayout=stackLayout;horizontal=1;startSize=26;fillColor=none;horizontalStack=0;resizeParent=1;resizeParentMax=0;resizeLast=0;collapsible=1;marginBottom=0;whiteSpace=wrap;html=1;" parent="RaRLkv8VTMjk-wRqg82v-149" vertex="1"><mxGeometry y="60" width="100" height="52" as="geometry"/></mxCell><mxCell id="RaRLkv8VTMjk-wRqg82v-148" style="edgeStyle=orthogonalEdgeStyle;rounded=0;orthogonalLoop=1;jettySize=auto;html=1;entryX=0.25;entryY=0;entryDx=0;entryDy=0;endArrow=block;endFill=0;" parent="RaRLkv8VTMjk-wRqg82v-149" source="RaRLkv8VTMjk-wRqg82v-147" target="RaRLkv8VTMjk-wRqg82v-123" edge="1"><mxGeometry relative="1" as="geometry"/></mxCell><mxCell id="RaRLkv8VTMjk-wRqg82v-147" value="B" style="ellipse;whiteSpace=wrap;html=1;aspect=fixed;fontSize=16;" parent="RaRLkv8VTMjk-wRqg82v-149" vertex="1"><mxGeometry x="8" y="-10" width="34" height="34" as="geometry"/></mxCell><mxCell id="RaRLkv8VTMjk-wRqg82v-207" style="edgeStyle=orthogonalEdgeStyle;rounded=0;orthogonalLoop=1;jettySize=auto;html=1;entryX=0.75;entryY=0;entryDx=0;entryDy=0;endArrow=none;endFill=0;" parent="RaRLkv8VTMjk-wRqg82v-149" source="RaRLkv8VTMjk-wRqg82v-206" target="RaRLkv8VTMjk-wRqg82v-123" edge="1"><mxGeometry relative="1" as="geometry"/></mxCell><mxCell id="RaRLkv8VTMjk-wRqg82v-206" value="C" style="ellipse;whiteSpace=wrap;html=1;aspect=fixed;fontSize=16;" parent="RaRLkv8VTMjk-wRqg82v-149" vertex="1"><mxGeometry x="58" y="-10" width="34" height="34" as="geometry"/></mxCell><mxCell id="RaRLkv8VTMjk-wRqg82v-152" value="" style="group" parent="1" vertex="1" connectable="0"><mxGeometry x="170" y="1265" width="140" height="122" as="geometry"/></mxCell><mxCell id="RaRLkv8VTMjk-wRqg82v-138" value="BranchEmployeeDAO" style="swimlane;fontStyle=0;childLayout=stackLayout;horizontal=1;startSize=26;fillColor=none;horizontalStack=0;resizeParent=1;resizeParentMax=0;resizeLast=0;collapsible=1;marginBottom=0;whiteSpace=wrap;html=1;" parent="RaRLkv8VTMjk-wRqg82v-152" vertex="1"><mxGeometry y="70" width="140" height="52" as="geometry"/></mxCell><mxCell id="RaRLkv8VTMjk-wRqg82v-151" style="edgeStyle=orthogonalEdgeStyle;rounded=0;orthogonalLoop=1;jettySize=auto;html=1;entryX=0.25;entryY=0;entryDx=0;entryDy=0;endArrow=block;endFill=0;" parent="RaRLkv8VTMjk-wRqg82v-152" source="RaRLkv8VTMjk-wRqg82v-150" target="RaRLkv8VTMjk-wRqg82v-138" edge="1"><mxGeometry relative="1" as="geometry"/></mxCell><mxCell id="RaRLkv8VTMjk-wRqg82v-150" value="B" style="ellipse;whiteSpace=wrap;html=1;aspect=fixed;fontSize=16;" parent="RaRLkv8VTMjk-wRqg82v-152" vertex="1"><mxGeometry x="18" width="34" height="34" as="geometry"/></mxCell><mxCell id="RaRLkv8VTMjk-wRqg82v-209" style="edgeStyle=orthogonalEdgeStyle;rounded=0;orthogonalLoop=1;jettySize=auto;html=1;exitX=0.5;exitY=1;exitDx=0;exitDy=0;entryX=0.75;entryY=0;entryDx=0;entryDy=0;endArrow=none;endFill=0;" parent="RaRLkv8VTMjk-wRqg82v-152" source="RaRLkv8VTMjk-wRqg82v-208" target="RaRLkv8VTMjk-wRqg82v-138" edge="1"><mxGeometry relative="1" as="geometry"/></mxCell><mxCell id="RaRLkv8VTMjk-wRqg82v-208" value="C" style="ellipse;whiteSpace=wrap;html=1;aspect=fixed;fontSize=16;" parent="RaRLkv8VTMjk-wRqg82v-152" vertex="1"><mxGeometry x="88" width="34" height="34" as="geometry"/></mxCell><mxCell id="RaRLkv8VTMjk-wRqg82v-155" value="" style="group" parent="1" vertex="1" connectable="0"><mxGeometry x="336" y="1265" width="154" height="122" as="geometry"/></mxCell><mxCell id="RaRLkv8VTMjk-wRqg82v-137" value="BranchEmployeeRoleDAO" style="swimlane;fontStyle=0;childLayout=stackLayout;horizontal=1;startSize=26;fillColor=none;horizontalStack=0;resizeParent=1;resizeParentMax=0;resizeLast=0;collapsible=1;marginBottom=0;whiteSpace=wrap;html=1;" parent="RaRLkv8VTMjk-wRqg82v-155" vertex="1"><mxGeometry y="70" width="154" height="52" as="geometry"/></mxCell><mxCell id="RaRLkv8VTMjk-wRqg82v-154" style="edgeStyle=orthogonalEdgeStyle;rounded=0;orthogonalLoop=1;jettySize=auto;html=1;endArrow=block;endFill=0;entryX=0.25;entryY=0;entryDx=0;entryDy=0;" parent="RaRLkv8VTMjk-wRqg82v-155" source="RaRLkv8VTMjk-wRqg82v-153" target="RaRLkv8VTMjk-wRqg82v-137" edge="1"><mxGeometry relative="1" as="geometry"/></mxCell><mxCell id="RaRLkv8VTMjk-wRqg82v-153" value="B" style="ellipse;whiteSpace=wrap;html=1;aspect=fixed;fontSize=16;" parent="RaRLkv8VTMjk-wRqg82v-155" vertex="1"><mxGeometry x="22" width="34" height="34" as="geometry"/></mxCell><mxCell id="RaRLkv8VTMjk-wRqg82v-214" style="rounded=0;orthogonalLoop=1;jettySize=auto;html=1;exitX=0.5;exitY=1;exitDx=0;exitDy=0;entryX=0.75;entryY=0;entryDx=0;entryDy=0;endArrow=none;endFill=0;" parent="RaRLkv8VTMjk-wRqg82v-155" source="RaRLkv8VTMjk-wRqg82v-210" target="RaRLkv8VTMjk-wRqg82v-137" edge="1"><mxGeometry relative="1" as="geometry"/></mxCell><mxCell id="RaRLkv8VTMjk-wRqg82v-210" value="C" style="ellipse;whiteSpace=wrap;html=1;aspect=fixed;fontSize=16;" parent="RaRLkv8VTMjk-wRqg82v-155" vertex="1"><mxGeometry x="99" width="34" height="34" as="geometry"/></mxCell><mxCell id="RaRLkv8VTMjk-wRqg82v-158" value="" style="group" parent="1" vertex="1" connectable="0"><mxGeometry x="757" y="1100" width="110" height="122" as="geometry"/></mxCell><mxCell id="RaRLkv8VTMjk-wRqg82v-136" value="BranchShiftDAO" style="swimlane;fontStyle=0;childLayout=stackLayout;horizontal=1;startSize=26;fillColor=none;horizontalStack=0;resizeParent=1;resizeParentMax=0;resizeLast=0;collapsible=1;marginBottom=0;whiteSpace=wrap;html=1;" parent="RaRLkv8VTMjk-wRqg82v-158" vertex="1"><mxGeometry y="70" width="110" height="52" as="geometry"/></mxCell><mxCell id="RaRLkv8VTMjk-wRqg82v-157" style="edgeStyle=orthogonalEdgeStyle;rounded=0;orthogonalLoop=1;jettySize=auto;html=1;endArrow=block;endFill=0;entryX=0.25;entryY=0;entryDx=0;entryDy=0;" parent="RaRLkv8VTMjk-wRqg82v-158" source="RaRLkv8VTMjk-wRqg82v-156" target="RaRLkv8VTMjk-wRqg82v-136" edge="1"><mxGeometry relative="1" as="geometry"/></mxCell><mxCell id="RaRLkv8VTMjk-wRqg82v-156" value="B" style="ellipse;whiteSpace=wrap;html=1;aspect=fixed;fontSize=16;" parent="RaRLkv8VTMjk-wRqg82v-158" vertex="1"><mxGeometry x="11" width="34" height="34" as="geometry"/></mxCell><mxCell id="RaRLkv8VTMjk-wRqg82v-213" style="rounded=0;orthogonalLoop=1;jettySize=auto;html=1;entryX=0.75;entryY=0;entryDx=0;entryDy=0;endArrow=none;endFill=0;" parent="RaRLkv8VTMjk-wRqg82v-158" source="RaRLkv8VTMjk-wRqg82v-212" target="RaRLkv8VTMjk-wRqg82v-136" edge="1"><mxGeometry relative="1" as="geometry"/></mxCell><mxCell id="RaRLkv8VTMjk-wRqg82v-212" value="C" style="ellipse;whiteSpace=wrap;html=1;aspect=fixed;fontSize=16;" parent="RaRLkv8VTMjk-wRqg82v-158" vertex="1"><mxGeometry x="66" width="34" height="34" as="geometry"/></mxCell><mxCell id="RaRLkv8VTMjk-wRqg82v-161" value="" style="group" parent="1" vertex="1" connectable="0"><mxGeometry x="548" y="1100" width="172" height="122" as="geometry"/></mxCell><mxCell id="RaRLkv8VTMjk-wRqg82v-135" value="ConstraintToEmployeeDAO" style="swimlane;fontStyle=0;childLayout=stackLayout;horizontal=1;startSize=26;fillColor=none;horizontalStack=0;resizeParent=1;resizeParentMax=0;resizeLast=0;collapsible=1;marginBottom=0;whiteSpace=wrap;html=1;" parent="RaRLkv8VTMjk-wRqg82v-161" vertex="1"><mxGeometry y="70" width="172" height="52" as="geometry"/></mxCell><mxCell id="RaRLkv8VTMjk-wRqg82v-160" style="edgeStyle=orthogonalEdgeStyle;rounded=0;orthogonalLoop=1;jettySize=auto;html=1;endArrow=block;endFill=0;entryX=0.25;entryY=0;entryDx=0;entryDy=0;" parent="RaRLkv8VTMjk-wRqg82v-161" source="RaRLkv8VTMjk-wRqg82v-159" target="RaRLkv8VTMjk-wRqg82v-135" edge="1"><mxGeometry relative="1" as="geometry"/></mxCell><mxCell id="RaRLkv8VTMjk-wRqg82v-159" value="B" style="ellipse;whiteSpace=wrap;html=1;aspect=fixed;fontSize=16;" parent="RaRLkv8VTMjk-wRqg82v-161" vertex="1"><mxGeometry x="26" width="34" height="34" as="geometry"/></mxCell><mxCell id="RaRLkv8VTMjk-wRqg82v-216" style="edgeStyle=orthogonalEdgeStyle;rounded=0;orthogonalLoop=1;jettySize=auto;html=1;entryX=0.75;entryY=0;entryDx=0;entryDy=0;endArrow=none;endFill=0;" parent="RaRLkv8VTMjk-wRqg82v-161" source="RaRLkv8VTMjk-wRqg82v-215" target="RaRLkv8VTMjk-wRqg82v-135" edge="1"><mxGeometry relative="1" as="geometry"/></mxCell><mxCell id="RaRLkv8VTMjk-wRqg82v-215" value="C" style="ellipse;whiteSpace=wrap;html=1;aspect=fixed;fontSize=16;" parent="RaRLkv8VTMjk-wRqg82v-161" vertex="1"><mxGeometry x="112" width="34" height="34" as="geometry"/></mxCell><mxCell id="RaRLkv8VTMjk-wRqg82v-164" value="" style="group" parent="1" vertex="1" connectable="0"><mxGeometry x="46.5" y="1410" width="80" height="122" as="geometry"/></mxCell><mxCell id="RaRLkv8VTMjk-wRqg82v-134" value="DriverDAO" style="swimlane;fontStyle=0;childLayout=stackLayout;horizontal=1;startSize=26;fillColor=none;horizontalStack=0;resizeParent=1;resizeParentMax=0;resizeLast=0;collapsible=1;marginBottom=0;whiteSpace=wrap;html=1;" parent="RaRLkv8VTMjk-wRqg82v-164" vertex="1"><mxGeometry y="70" width="80" height="52" as="geometry"/></mxCell><mxCell id="RaRLkv8VTMjk-wRqg82v-163" style="edgeStyle=orthogonalEdgeStyle;rounded=0;orthogonalLoop=1;jettySize=auto;html=1;entryX=0.25;entryY=0;entryDx=0;entryDy=0;endArrow=block;endFill=0;" parent="RaRLkv8VTMjk-wRqg82v-164" source="RaRLkv8VTMjk-wRqg82v-162" target="RaRLkv8VTMjk-wRqg82v-134" edge="1"><mxGeometry relative="1" as="geometry"/></mxCell><mxCell id="RaRLkv8VTMjk-wRqg82v-162" value="B" style="ellipse;whiteSpace=wrap;html=1;aspect=fixed;fontSize=16;" parent="RaRLkv8VTMjk-wRqg82v-164" vertex="1"><mxGeometry x="3" width="34" height="34" as="geometry"/></mxCell><mxCell id="RaRLkv8VTMjk-wRqg82v-219" style="edgeStyle=orthogonalEdgeStyle;rounded=0;orthogonalLoop=1;jettySize=auto;html=1;entryX=0.75;entryY=0;entryDx=0;entryDy=0;endArrow=none;endFill=0;" parent="RaRLkv8VTMjk-wRqg82v-164" source="RaRLkv8VTMjk-wRqg82v-217" target="RaRLkv8VTMjk-wRqg82v-134" edge="1"><mxGeometry relative="1" as="geometry"/></mxCell><mxCell id="RaRLkv8VTMjk-wRqg82v-217" value="C" style="ellipse;whiteSpace=wrap;html=1;aspect=fixed;fontSize=16;" parent="RaRLkv8VTMjk-wRqg82v-164" vertex="1"><mxGeometry x="43" width="34" height="34" as="geometry"/></mxCell><mxCell id="RaRLkv8VTMjk-wRqg82v-167" value="" style="group" parent="1" vertex="1" connectable="0"><mxGeometry x="150" y="1410" width="140" height="122" as="geometry"/></mxCell><mxCell id="RaRLkv8VTMjk-wRqg82v-133" value="DriverDeliveryDatesDAO" style="swimlane;fontStyle=0;childLayout=stackLayout;horizontal=1;startSize=26;fillColor=none;horizontalStack=0;resizeParent=1;resizeParentMax=0;resizeLast=0;collapsible=1;marginBottom=0;whiteSpace=wrap;html=1;" parent="RaRLkv8VTMjk-wRqg82v-167" vertex="1"><mxGeometry y="70" width="140" height="52" as="geometry"/></mxCell><mxCell id="RaRLkv8VTMjk-wRqg82v-166" style="edgeStyle=orthogonalEdgeStyle;rounded=0;orthogonalLoop=1;jettySize=auto;html=1;endArrow=block;endFill=0;entryX=0.25;entryY=0;entryDx=0;entryDy=0;" parent="RaRLkv8VTMjk-wRqg82v-167" source="RaRLkv8VTMjk-wRqg82v-165" target="RaRLkv8VTMjk-wRqg82v-133" edge="1"><mxGeometry relative="1" as="geometry"/></mxCell><mxCell id="RaRLkv8VTMjk-wRqg82v-165" value="B" style="ellipse;whiteSpace=wrap;html=1;aspect=fixed;fontSize=16;" parent="RaRLkv8VTMjk-wRqg82v-167" vertex="1"><mxGeometry x="18" width="34" height="34" as="geometry"/></mxCell><mxCell id="RaRLkv8VTMjk-wRqg82v-221" style="edgeStyle=orthogonalEdgeStyle;rounded=0;orthogonalLoop=1;jettySize=auto;html=1;entryX=0.75;entryY=0;entryDx=0;entryDy=0;endArrow=none;endFill=0;" parent="RaRLkv8VTMjk-wRqg82v-167" source="RaRLkv8VTMjk-wRqg82v-220" target="RaRLkv8VTMjk-wRqg82v-133" edge="1"><mxGeometry relative="1" as="geometry"/></mxCell><mxCell id="RaRLkv8VTMjk-wRqg82v-220" value="C" style="ellipse;whiteSpace=wrap;html=1;aspect=fixed;fontSize=16;" parent="RaRLkv8VTMjk-wRqg82v-167" vertex="1"><mxGeometry x="88" width="34" height="34" as="geometry"/></mxCell><mxCell id="RaRLkv8VTMjk-wRqg82v-170" value="" style="group" parent="1" vertex="1" connectable="0"><mxGeometry x="320" y="1410" width="140" height="122" as="geometry"/></mxCell><mxCell id="RaRLkv8VTMjk-wRqg82v-132" value="DriverQualificationsDAO" style="swimlane;fontStyle=0;childLayout=stackLayout;horizontal=1;startSize=26;fillColor=none;horizontalStack=0;resizeParent=1;resizeParentMax=0;resizeLast=0;collapsible=1;marginBottom=0;whiteSpace=wrap;html=1;" parent="RaRLkv8VTMjk-wRqg82v-170" vertex="1"><mxGeometry y="70" width="140" height="52" as="geometry"/></mxCell><mxCell id="RaRLkv8VTMjk-wRqg82v-169" style="edgeStyle=orthogonalEdgeStyle;rounded=0;orthogonalLoop=1;jettySize=auto;html=1;exitX=0.5;exitY=1;exitDx=0;exitDy=0;endArrow=block;endFill=0;entryX=0.25;entryY=0;entryDx=0;entryDy=0;" parent="RaRLkv8VTMjk-wRqg82v-170" source="RaRLkv8VTMjk-wRqg82v-168" target="RaRLkv8VTMjk-wRqg82v-132" edge="1"><mxGeometry relative="1" as="geometry"/></mxCell><mxCell id="RaRLkv8VTMjk-wRqg82v-168" value="B" style="ellipse;whiteSpace=wrap;html=1;aspect=fixed;fontSize=16;" parent="RaRLkv8VTMjk-wRqg82v-170" vertex="1"><mxGeometry x="18" width="34" height="34" as="geometry"/></mxCell><mxCell id="RaRLkv8VTMjk-wRqg82v-227" style="edgeStyle=orthogonalEdgeStyle;rounded=0;orthogonalLoop=1;jettySize=auto;html=1;exitX=0.5;exitY=1;exitDx=0;exitDy=0;entryX=0.75;entryY=0;entryDx=0;entryDy=0;endArrow=none;endFill=0;" parent="RaRLkv8VTMjk-wRqg82v-170" source="RaRLkv8VTMjk-wRqg82v-222" target="RaRLkv8VTMjk-wRqg82v-132" edge="1"><mxGeometry relative="1" as="geometry"/></mxCell><mxCell id="RaRLkv8VTMjk-wRqg82v-222" value="C" style="ellipse;whiteSpace=wrap;html=1;aspect=fixed;fontSize=16;" parent="RaRLkv8VTMjk-wRqg82v-170" vertex="1"><mxGeometry x="86.5" width="34" height="34" as="geometry"/></mxCell><mxCell id="RaRLkv8VTMjk-wRqg82v-173" value="" style="group" parent="1" vertex="1" connectable="0"><mxGeometry x="480" y="1410" width="140" height="122" as="geometry"/></mxCell><mxCell id="RaRLkv8VTMjk-wRqg82v-131" value="DriverScheduleDAO" style="swimlane;fontStyle=0;childLayout=stackLayout;horizontal=1;startSize=26;fillColor=none;horizontalStack=0;resizeParent=1;resizeParentMax=0;resizeLast=0;collapsible=1;marginBottom=0;whiteSpace=wrap;html=1;" parent="RaRLkv8VTMjk-wRqg82v-173" vertex="1"><mxGeometry y="70" width="140" height="52" as="geometry"/></mxCell><mxCell id="RaRLkv8VTMjk-wRqg82v-172" style="edgeStyle=orthogonalEdgeStyle;rounded=0;orthogonalLoop=1;jettySize=auto;html=1;endArrow=block;endFill=0;entryX=0.25;entryY=0;entryDx=0;entryDy=0;" parent="RaRLkv8VTMjk-wRqg82v-173" source="RaRLkv8VTMjk-wRqg82v-171" target="RaRLkv8VTMjk-wRqg82v-131" edge="1"><mxGeometry relative="1" as="geometry"/></mxCell><mxCell id="RaRLkv8VTMjk-wRqg82v-171" value="B" style="ellipse;whiteSpace=wrap;html=1;aspect=fixed;fontSize=16;" parent="RaRLkv8VTMjk-wRqg82v-173" vertex="1"><mxGeometry x="18" width="34" height="34" as="geometry"/></mxCell><mxCell id="RaRLkv8VTMjk-wRqg82v-230" style="edgeStyle=orthogonalEdgeStyle;rounded=0;orthogonalLoop=1;jettySize=auto;html=1;entryX=0.75;entryY=0;entryDx=0;entryDy=0;endArrow=none;endFill=0;" parent="RaRLkv8VTMjk-wRqg82v-173" source="RaRLkv8VTMjk-wRqg82v-229" target="RaRLkv8VTMjk-wRqg82v-131" edge="1"><mxGeometry relative="1" as="geometry"/></mxCell><mxCell id="RaRLkv8VTMjk-wRqg82v-229" value="C" style="ellipse;whiteSpace=wrap;html=1;aspect=fixed;fontSize=16;" parent="RaRLkv8VTMjk-wRqg82v-173" vertex="1"><mxGeometry x="88" width="34" height="34" as="geometry"/></mxCell><mxCell id="RaRLkv8VTMjk-wRqg82v-176" value="" style="group" parent="1" vertex="1" connectable="0"><mxGeometry x="648.25" y="1410" width="86" height="122" as="geometry"/></mxCell><mxCell id="RaRLkv8VTMjk-wRqg82v-130" value="DriverShift" style="swimlane;fontStyle=0;childLayout=stackLayout;horizontal=1;startSize=26;fillColor=none;horizontalStack=0;resizeParent=1;resizeParentMax=0;resizeLast=0;collapsible=1;marginBottom=0;whiteSpace=wrap;html=1;" parent="RaRLkv8VTMjk-wRqg82v-176" vertex="1"><mxGeometry y="70" width="86" height="52" as="geometry"/></mxCell><mxCell id="RaRLkv8VTMjk-wRqg82v-175" style="edgeStyle=orthogonalEdgeStyle;rounded=0;orthogonalLoop=1;jettySize=auto;html=1;entryX=0.25;entryY=0;entryDx=0;entryDy=0;endArrow=block;endFill=0;" parent="RaRLkv8VTMjk-wRqg82v-176" source="RaRLkv8VTMjk-wRqg82v-174" target="RaRLkv8VTMjk-wRqg82v-130" edge="1"><mxGeometry relative="1" as="geometry"/></mxCell><mxCell id="RaRLkv8VTMjk-wRqg82v-174" value="B" style="ellipse;whiteSpace=wrap;html=1;aspect=fixed;fontSize=16;" parent="RaRLkv8VTMjk-wRqg82v-176" vertex="1"><mxGeometry x="4" width="34" height="34" as="geometry"/></mxCell><mxCell id="RaRLkv8VTMjk-wRqg82v-233" style="edgeStyle=orthogonalEdgeStyle;rounded=0;orthogonalLoop=1;jettySize=auto;html=1;entryX=0.75;entryY=0;entryDx=0;entryDy=0;endArrow=none;endFill=0;" parent="RaRLkv8VTMjk-wRqg82v-176" source="RaRLkv8VTMjk-wRqg82v-232" target="RaRLkv8VTMjk-wRqg82v-130" edge="1"><mxGeometry relative="1" as="geometry"/></mxCell><mxCell id="RaRLkv8VTMjk-wRqg82v-232" value="C" style="ellipse;whiteSpace=wrap;html=1;aspect=fixed;fontSize=16;" parent="RaRLkv8VTMjk-wRqg82v-176" vertex="1"><mxGeometry x="48" width="34" height="34" as="geometry"/></mxCell><mxCell id="RaRLkv8VTMjk-wRqg82v-179" value="" style="group" parent="1" vertex="1" connectable="0"><mxGeometry x="772" y="1410" width="159" height="122" as="geometry"/></mxCell><mxCell id="RaRLkv8VTMjk-wRqg82v-129" value="EmployeeConstraintDAO" style="swimlane;fontStyle=0;childLayout=stackLayout;horizontal=1;startSize=26;fillColor=none;horizontalStack=0;resizeParent=1;resizeParentMax=0;resizeLast=0;collapsible=1;marginBottom=0;whiteSpace=wrap;html=1;" parent="RaRLkv8VTMjk-wRqg82v-179" vertex="1"><mxGeometry y="70" width="140" height="52" as="geometry"/></mxCell><mxCell id="RaRLkv8VTMjk-wRqg82v-178" style="edgeStyle=orthogonalEdgeStyle;rounded=0;orthogonalLoop=1;jettySize=auto;html=1;endArrow=block;endFill=0;entryX=0.25;entryY=0;entryDx=0;entryDy=0;" parent="RaRLkv8VTMjk-wRqg82v-179" source="RaRLkv8VTMjk-wRqg82v-177" target="RaRLkv8VTMjk-wRqg82v-129" edge="1"><mxGeometry relative="1" as="geometry"/></mxCell><mxCell id="RaRLkv8VTMjk-wRqg82v-177" value="B" style="ellipse;whiteSpace=wrap;html=1;aspect=fixed;fontSize=16;" parent="RaRLkv8VTMjk-wRqg82v-179" vertex="1"><mxGeometry x="18" width="34" height="34" as="geometry"/></mxCell><mxCell id="RaRLkv8VTMjk-wRqg82v-235" style="edgeStyle=orthogonalEdgeStyle;rounded=0;orthogonalLoop=1;jettySize=auto;html=1;entryX=0.75;entryY=0;entryDx=0;entryDy=0;endArrow=none;endFill=0;" parent="RaRLkv8VTMjk-wRqg82v-179" edge="1"><mxGeometry relative="1" as="geometry"><mxPoint x="103" y="34" as="sourcePoint"/><mxPoint x="106" y="70" as="targetPoint"/></mxGeometry></mxCell><mxCell id="RaRLkv8VTMjk-wRqg82v-234" value="C" style="ellipse;whiteSpace=wrap;html=1;aspect=fixed;fontSize=16;" parent="RaRLkv8VTMjk-wRqg82v-179" vertex="1"><mxGeometry x="89" width="34" height="34" as="geometry"/></mxCell><mxCell id="RaRLkv8VTMjk-wRqg82v-186" value="" style="group" parent="1" vertex="1" connectable="0"><mxGeometry x="509" y="1275" width="102" height="112" as="geometry"/></mxCell><mxCell id="RaRLkv8VTMjk-wRqg82v-128" value="EmployeeDAO" style="swimlane;fontStyle=0;childLayout=stackLayout;horizontal=1;startSize=26;fillColor=none;horizontalStack=0;resizeParent=1;resizeParentMax=0;resizeLast=0;collapsible=1;marginBottom=0;whiteSpace=wrap;html=1;" parent="RaRLkv8VTMjk-wRqg82v-186" vertex="1"><mxGeometry y="60" width="90" height="52" as="geometry"/></mxCell><mxCell id="RaRLkv8VTMjk-wRqg82v-185" style="edgeStyle=orthogonalEdgeStyle;rounded=0;orthogonalLoop=1;jettySize=auto;html=1;exitX=0.5;exitY=1;exitDx=0;exitDy=0;entryX=0.25;entryY=0;entryDx=0;entryDy=0;endArrow=block;endFill=0;" parent="RaRLkv8VTMjk-wRqg82v-186" source="RaRLkv8VTMjk-wRqg82v-184" target="RaRLkv8VTMjk-wRqg82v-128" edge="1"><mxGeometry relative="1" as="geometry"/></mxCell><mxCell id="RaRLkv8VTMjk-wRqg82v-184" value="B" style="ellipse;whiteSpace=wrap;html=1;aspect=fixed;fontSize=16;" parent="RaRLkv8VTMjk-wRqg82v-186" vertex="1"><mxGeometry x="7" width="34" height="34" as="geometry"/></mxCell><mxCell id="RaRLkv8VTMjk-wRqg82v-238" style="edgeStyle=orthogonalEdgeStyle;rounded=0;orthogonalLoop=1;jettySize=auto;html=1;exitX=0.5;exitY=1;exitDx=0;exitDy=0;entryX=0.75;entryY=0;entryDx=0;entryDy=0;endArrow=none;endFill=0;" parent="RaRLkv8VTMjk-wRqg82v-186" source="RaRLkv8VTMjk-wRqg82v-236" target="RaRLkv8VTMjk-wRqg82v-128" edge="1"><mxGeometry relative="1" as="geometry"/></mxCell><mxCell id="RaRLkv8VTMjk-wRqg82v-236" value="C" style="ellipse;whiteSpace=wrap;html=1;aspect=fixed;fontSize=16;" parent="RaRLkv8VTMjk-wRqg82v-186" vertex="1"><mxGeometry x="49" width="34" height="34" as="geometry"/></mxCell><mxCell id="RaRLkv8VTMjk-wRqg82v-189" value="" style="group" parent="1" vertex="1" connectable="0"><mxGeometry x="900" y="1265" width="185" height="122" as="geometry"/></mxCell><mxCell id="RaRLkv8VTMjk-wRqg82v-127" value="ProductCancellationToShiftDAO" style="swimlane;fontStyle=0;childLayout=stackLayout;horizontal=1;startSize=26;fillColor=none;horizontalStack=0;resizeParent=1;resizeParentMax=0;resizeLast=0;collapsible=1;marginBottom=0;whiteSpace=wrap;html=1;" parent="RaRLkv8VTMjk-wRqg82v-189" vertex="1"><mxGeometry y="70" width="185" height="52" as="geometry"/></mxCell><mxCell id="RaRLkv8VTMjk-wRqg82v-188" style="edgeStyle=orthogonalEdgeStyle;rounded=0;orthogonalLoop=1;jettySize=auto;html=1;entryX=0.25;entryY=0;entryDx=0;entryDy=0;endArrow=block;endFill=0;" parent="RaRLkv8VTMjk-wRqg82v-189" source="RaRLkv8VTMjk-wRqg82v-187" target="RaRLkv8VTMjk-wRqg82v-127" edge="1"><mxGeometry relative="1" as="geometry"/></mxCell><mxCell id="RaRLkv8VTMjk-wRqg82v-187" value="B" style="ellipse;whiteSpace=wrap;html=1;aspect=fixed;fontSize=16;" parent="RaRLkv8VTMjk-wRqg82v-189" vertex="1"><mxGeometry x="29.5" width="34" height="34" as="geometry"/></mxCell><mxCell id="RaRLkv8VTMjk-wRqg82v-240" style="edgeStyle=orthogonalEdgeStyle;rounded=0;orthogonalLoop=1;jettySize=auto;html=1;entryX=0.75;entryY=0;entryDx=0;entryDy=0;endArrow=none;endFill=0;" parent="RaRLkv8VTMjk-wRqg82v-189" source="RaRLkv8VTMjk-wRqg82v-239" target="RaRLkv8VTMjk-wRqg82v-127" edge="1"><mxGeometry relative="1" as="geometry"/></mxCell><mxCell id="RaRLkv8VTMjk-wRqg82v-239" value="C" style="ellipse;whiteSpace=wrap;html=1;aspect=fixed;fontSize=16;" parent="RaRLkv8VTMjk-wRqg82v-189" vertex="1"><mxGeometry x="121.5" width="34" height="34" as="geometry"/></mxCell><mxCell id="RaRLkv8VTMjk-wRqg82v-193" value="" style="group" parent="1" vertex="1" connectable="0"><mxGeometry x="640" y="1265" width="102.5" height="122" as="geometry"/></mxCell><mxCell id="RaRLkv8VTMjk-wRqg82v-254" style="edgeStyle=orthogonalEdgeStyle;rounded=0;orthogonalLoop=1;jettySize=auto;html=1;exitX=0.75;exitY=0;exitDx=0;exitDy=0;entryX=0.5;entryY=1;entryDx=0;entryDy=0;endArrow=none;endFill=0;" parent="RaRLkv8VTMjk-wRqg82v-193" source="RaRLkv8VTMjk-wRqg82v-140" target="RaRLkv8VTMjk-wRqg82v-241" edge="1"><mxGeometry relative="1" as="geometry"/></mxCell><mxCell id="RaRLkv8VTMjk-wRqg82v-140" value="RoleCountDAO" style="swimlane;fontStyle=0;childLayout=stackLayout;horizontal=1;startSize=26;fillColor=none;horizontalStack=0;resizeParent=1;resizeParentMax=0;resizeLast=0;collapsible=1;marginBottom=0;whiteSpace=wrap;html=1;" parent="RaRLkv8VTMjk-wRqg82v-193" vertex="1"><mxGeometry y="70" width="102.5" height="52" as="geometry"/></mxCell><mxCell id="RaRLkv8VTMjk-wRqg82v-192" style="edgeStyle=orthogonalEdgeStyle;rounded=0;orthogonalLoop=1;jettySize=auto;html=1;entryX=0.25;entryY=0;entryDx=0;entryDy=0;endArrow=block;endFill=0;" parent="RaRLkv8VTMjk-wRqg82v-193" source="RaRLkv8VTMjk-wRqg82v-190" target="RaRLkv8VTMjk-wRqg82v-140" edge="1"><mxGeometry relative="1" as="geometry"/></mxCell><mxCell id="RaRLkv8VTMjk-wRqg82v-190" value="B" style="ellipse;whiteSpace=wrap;html=1;aspect=fixed;fontSize=16;" parent="RaRLkv8VTMjk-wRqg82v-193" vertex="1"><mxGeometry x="9.25" width="34" height="34" as="geometry"/></mxCell><mxCell id="RaRLkv8VTMjk-wRqg82v-241" value="C" style="ellipse;whiteSpace=wrap;html=1;aspect=fixed;fontSize=16;" parent="RaRLkv8VTMjk-wRqg82v-193" vertex="1"><mxGeometry x="60.5" width="34" height="34" as="geometry"/></mxCell><mxCell id="RaRLkv8VTMjk-wRqg82v-196" value="" style="group" parent="1" vertex="1" connectable="0"><mxGeometry x="772" y="1265" width="103" height="122" as="geometry"/></mxCell><mxCell id="RaRLkv8VTMjk-wRqg82v-141" value="ScheduleDAO" style="swimlane;fontStyle=0;childLayout=stackLayout;horizontal=1;startSize=26;fillColor=none;horizontalStack=0;resizeParent=1;resizeParentMax=0;resizeLast=0;collapsible=1;marginBottom=0;whiteSpace=wrap;html=1;" parent="RaRLkv8VTMjk-wRqg82v-196" vertex="1"><mxGeometry y="70" width="103" height="52" as="geometry"/></mxCell><mxCell id="RaRLkv8VTMjk-wRqg82v-195" style="rounded=0;orthogonalLoop=1;jettySize=auto;html=1;endArrow=block;endFill=0;entryX=0.25;entryY=0;entryDx=0;entryDy=0;" parent="RaRLkv8VTMjk-wRqg82v-196" source="RaRLkv8VTMjk-wRqg82v-194" target="RaRLkv8VTMjk-wRqg82v-141" edge="1"><mxGeometry relative="1" as="geometry"/></mxCell><mxCell id="RaRLkv8VTMjk-wRqg82v-194" value="B" style="ellipse;whiteSpace=wrap;html=1;aspect=fixed;fontSize=16;" parent="RaRLkv8VTMjk-wRqg82v-196" vertex="1"><mxGeometry x="9.5" width="34" height="34" as="geometry"/></mxCell><mxCell id="RaRLkv8VTMjk-wRqg82v-244" style="edgeStyle=orthogonalEdgeStyle;rounded=0;orthogonalLoop=1;jettySize=auto;html=1;entryX=0.75;entryY=0;entryDx=0;entryDy=0;endArrow=none;endFill=0;" parent="RaRLkv8VTMjk-wRqg82v-196" source="RaRLkv8VTMjk-wRqg82v-243" target="RaRLkv8VTMjk-wRqg82v-141" edge="1"><mxGeometry relative="1" as="geometry"/></mxCell><mxCell id="RaRLkv8VTMjk-wRqg82v-243" value="C" style="ellipse;whiteSpace=wrap;html=1;aspect=fixed;fontSize=16;" parent="RaRLkv8VTMjk-wRqg82v-196" vertex="1"><mxGeometry x="60" width="34" height="34" as="geometry"/></mxCell><mxCell id="RaRLkv8VTMjk-wRqg82v-199" value="" style="group" parent="1" vertex="1" connectable="0"><mxGeometry x="931" y="1100" width="103" height="122" as="geometry"/></mxCell><mxCell id="RaRLkv8VTMjk-wRqg82v-142" value="ShiftDAO" style="swimlane;fontStyle=0;childLayout=stackLayout;horizontal=1;startSize=26;fillColor=none;horizontalStack=0;resizeParent=1;resizeParentMax=0;resizeLast=0;collapsible=1;marginBottom=0;whiteSpace=wrap;html=1;" parent="RaRLkv8VTMjk-wRqg82v-199" vertex="1"><mxGeometry y="70" width="103" height="52" as="geometry"/></mxCell><mxCell id="RaRLkv8VTMjk-wRqg82v-198" style="rounded=0;orthogonalLoop=1;jettySize=auto;html=1;endArrow=block;endFill=0;entryX=0.25;entryY=0;entryDx=0;entryDy=0;" parent="RaRLkv8VTMjk-wRqg82v-199" source="RaRLkv8VTMjk-wRqg82v-197" target="RaRLkv8VTMjk-wRqg82v-142" edge="1"><mxGeometry relative="1" as="geometry"/></mxCell><mxCell id="RaRLkv8VTMjk-wRqg82v-197" value="B" style="ellipse;whiteSpace=wrap;html=1;aspect=fixed;fontSize=16;" parent="RaRLkv8VTMjk-wRqg82v-199" vertex="1"><mxGeometry x="8" width="34" height="34" as="geometry"/></mxCell><mxCell id="RaRLkv8VTMjk-wRqg82v-246" style="edgeStyle=orthogonalEdgeStyle;rounded=0;orthogonalLoop=1;jettySize=auto;html=1;entryX=0.75;entryY=0;entryDx=0;entryDy=0;endArrow=none;endFill=0;" parent="RaRLkv8VTMjk-wRqg82v-199" source="RaRLkv8VTMjk-wRqg82v-245" target="RaRLkv8VTMjk-wRqg82v-142" edge="1"><mxGeometry relative="1" as="geometry"/></mxCell><mxCell id="RaRLkv8VTMjk-wRqg82v-245" value="C" style="ellipse;whiteSpace=wrap;html=1;aspect=fixed;fontSize=16;" parent="RaRLkv8VTMjk-wRqg82v-199" vertex="1"><mxGeometry x="60" width="34" height="34" as="geometry"/></mxCell><mxCell id="RaRLkv8VTMjk-wRqg82v-249" value="" style="group" parent="1" vertex="1" connectable="0"><mxGeometry x="956" y="1410" width="103" height="122" as="geometry"/></mxCell><mxCell id="RaRLkv8VTMjk-wRqg82v-143" value="TimesOfShiftsDAO" style="swimlane;fontStyle=0;childLayout=stackLayout;horizontal=1;startSize=26;fillColor=none;horizontalStack=0;resizeParent=1;resizeParentMax=0;resizeLast=0;collapsible=1;marginBottom=0;whiteSpace=wrap;html=1;" parent="RaRLkv8VTMjk-wRqg82v-249" vertex="1"><mxGeometry y="70" width="103" height="52" as="geometry"/></mxCell><mxCell id="RaRLkv8VTMjk-wRqg82v-201" style="rounded=0;orthogonalLoop=1;jettySize=auto;html=1;entryX=0.25;entryY=0;entryDx=0;entryDy=0;endArrow=block;endFill=0;" parent="RaRLkv8VTMjk-wRqg82v-249" source="RaRLkv8VTMjk-wRqg82v-200" target="RaRLkv8VTMjk-wRqg82v-143" edge="1"><mxGeometry relative="1" as="geometry"/></mxCell><mxCell id="RaRLkv8VTMjk-wRqg82v-200" value="B" style="ellipse;whiteSpace=wrap;html=1;aspect=fixed;fontSize=16;" parent="RaRLkv8VTMjk-wRqg82v-249" vertex="1"><mxGeometry x="8" width="34" height="34" as="geometry"/></mxCell><mxCell id="RaRLkv8VTMjk-wRqg82v-248" style="edgeStyle=orthogonalEdgeStyle;rounded=0;orthogonalLoop=1;jettySize=auto;html=1;entryX=0.75;entryY=0;entryDx=0;entryDy=0;endArrow=none;endFill=0;" parent="RaRLkv8VTMjk-wRqg82v-249" source="RaRLkv8VTMjk-wRqg82v-247" target="RaRLkv8VTMjk-wRqg82v-143" edge="1"><mxGeometry relative="1" as="geometry"/></mxCell><mxCell id="RaRLkv8VTMjk-wRqg82v-247" value="C" style="ellipse;whiteSpace=wrap;html=1;aspect=fixed;fontSize=16;" parent="RaRLkv8VTMjk-wRqg82v-249" vertex="1"><mxGeometry x="60" width="34" height="34" as="geometry"/></mxCell><mxCell id="RaRLkv8VTMjk-wRqg82v-250" value="" style="group" parent="1" vertex="1" connectable="0"><mxGeometry x="50" y="1130" width="100" height="103" as="geometry"/></mxCell><mxCell id="RaRLkv8VTMjk-wRqg82v-144" value="AbstractDAO" style="swimlane;fontStyle=0;childLayout=stackLayout;horizontal=1;startSize=26;fillColor=none;horizontalStack=0;resizeParent=1;resizeParentMax=0;resizeLast=0;collapsible=1;marginBottom=0;whiteSpace=wrap;html=1;" parent="RaRLkv8VTMjk-wRqg82v-250" vertex="1"><mxGeometry width="100" height="52" as="geometry"/></mxCell><mxCell id="RaRLkv8VTMjk-wRqg82v-145" value="B" style="ellipse;whiteSpace=wrap;html=1;aspect=fixed;fontSize=16;" parent="RaRLkv8VTMjk-wRqg82v-250" vertex="1"><mxGeometry x="32" y="69" width="34" height="34" as="geometry"/></mxCell><mxCell id="RaRLkv8VTMjk-wRqg82v-146" style="edgeStyle=orthogonalEdgeStyle;rounded=0;orthogonalLoop=1;jettySize=auto;html=1;exitX=0.5;exitY=1;exitDx=0;exitDy=0;entryX=0.5;entryY=0;entryDx=0;entryDy=0;endArrow=none;endFill=0;" parent="RaRLkv8VTMjk-wRqg82v-250" source="RaRLkv8VTMjk-wRqg82v-144" target="RaRLkv8VTMjk-wRqg82v-145" edge="1"><mxGeometry relative="1" as="geometry"/></mxCell><mxCell id="RaRLkv8VTMjk-wRqg82v-251" value="" style="group" parent="1" vertex="1" connectable="0"><mxGeometry x="190" y="1050" width="230" height="194" as="geometry"/></mxCell><mxCell id="RaRLkv8VTMjk-wRqg82v-117" value="A" style="ellipse;whiteSpace=wrap;html=1;aspect=fixed;fontSize=16;" parent="RaRLkv8VTMjk-wRqg82v-251" vertex="1"><mxGeometry x="98" width="34" height="34" as="geometry"/></mxCell><mxCell id="RaRLkv8VTMjk-wRqg82v-118" value="DALFacade" style="swimlane;fontStyle=0;childLayout=stackLayout;horizontal=1;startSize=26;fillColor=none;horizontalStack=0;resizeParent=1;resizeParentMax=0;resizeLast=0;collapsible=1;marginBottom=0;whiteSpace=wrap;html=1;" parent="RaRLkv8VTMjk-wRqg82v-251" vertex="1"><mxGeometry y="80" width="230" height="52" as="geometry"/></mxCell><mxCell id="RaRLkv8VTMjk-wRqg82v-122" value="contains" style="edgeStyle=orthogonalEdgeStyle;rounded=0;orthogonalLoop=1;jettySize=auto;html=1;exitX=0.5;exitY=1;exitDx=0;exitDy=0;entryX=0.5;entryY=0;entryDx=0;entryDy=0;endArrow=none;endFill=0;" parent="RaRLkv8VTMjk-wRqg82v-251" source="RaRLkv8VTMjk-wRqg82v-117" target="RaRLkv8VTMjk-wRqg82v-118" edge="1"><mxGeometry relative="1" as="geometry"/></mxCell><mxCell id="RaRLkv8VTMjk-wRqg82v-204" value="contains" style="edgeStyle=orthogonalEdgeStyle;rounded=0;orthogonalLoop=1;jettySize=auto;html=1;exitX=0.5;exitY=0;exitDx=0;exitDy=0;entryX=0.5;entryY=1;entryDx=0;entryDy=0;endArrow=diamondThin;endFill=0;" parent="RaRLkv8VTMjk-wRqg82v-251" source="RaRLkv8VTMjk-wRqg82v-202" target="RaRLkv8VTMjk-wRqg82v-118" edge="1"><mxGeometry relative="1" as="geometry"/></mxCell><mxCell id="RaRLkv8VTMjk-wRqg82v-202" value="C" style="ellipse;whiteSpace=wrap;html=1;aspect=fixed;fontSize=16;" parent="RaRLkv8VTMjk-wRqg82v-251" vertex="1"><mxGeometry x="98" y="160" width="34" height="34" as="geometry"/></mxCell><mxCell id="RaRLkv8VTMjk-wRqg82v-253" style="edgeStyle=orthogonalEdgeStyle;rounded=0;orthogonalLoop=1;jettySize=auto;html=1;exitX=0.5;exitY=1;exitDx=0;exitDy=0;entryX=0.5;entryY=0;entryDx=0;entryDy=0;endArrow=none;endFill=0;startArrow=diamondThin;startFill=0;" parent="1" source="RaRLkv8VTMjk-wRqg82v-136" target="RaRLkv8VTMjk-wRqg82v-140" edge="1"><mxGeometry relative="1" as="geometry"><Array as="points"><mxPoint x="812" y="1250"/><mxPoint x="691" y="1250"/></Array></mxGeometry></mxCell><mxCell id="RaRLkv8VTMjk-wRqg82v-256" style="edgeStyle=orthogonalEdgeStyle;rounded=0;orthogonalLoop=1;jettySize=auto;html=1;exitX=0.5;exitY=1;exitDx=0;exitDy=0;entryX=0.5;entryY=0;entryDx=0;entryDy=0;endArrow=none;endFill=0;startArrow=diamondThin;startFill=0;" parent="1" source="RaRLkv8VTMjk-wRqg82v-136" target="RaRLkv8VTMjk-wRqg82v-141" edge="1"><mxGeometry relative="1" as="geometry"><Array as="points"><mxPoint x="812" y="1250"/><mxPoint x="824" y="1250"/><mxPoint x="824" y="1279"/></Array></mxGeometry></mxCell><mxCell id="RaRLkv8VTMjk-wRqg82v-257" value="contains" style="edgeStyle=orthogonalEdgeStyle;rounded=0;orthogonalLoop=1;jettySize=auto;html=1;exitX=0.5;exitY=1;exitDx=0;exitDy=0;entryX=0.5;entryY=0;entryDx=0;entryDy=0;endArrow=none;endFill=0;startArrow=diamondThin;startFill=0;" parent="1" source="RaRLkv8VTMjk-wRqg82v-136" target="RaRLkv8VTMjk-wRqg82v-127" edge="1"><mxGeometry x="-0.7547" relative="1" as="geometry"><Array as="points"><mxPoint x="812" y="1250"/><mxPoint x="993" y="1250"/></Array><mxPoint as="offset"/></mxGeometry></mxCell></root></mxGraphModel></diagram></mxfile>